<svg xmlns="http://www.w3.org/2000/svg" viewBox="0 0 295.82 361.15"><defs><style>.cls-1{fill:#dcc0b9;}.cls-2{fill:#e3cfc7;}.cls-3{fill:#535365;}.cls-4{fill:#dec6be;}.cls-5{fill:#ddc3bc;}.cls-6{fill:#4a6f7a;}.cls-7{fill:#7599a8;}.cls-8{fill:#48485a;}.cls-9{fill:#d47370;}.cls-10{fill:#454557;}.cls-11{fill:#eae0d8;}.cls-12{fill:#4b4b5d;}.cls-13{fill:#ecbab1;}.cls-14{fill:#434356;}.cls-15{fill:#ebb6ad;}.cls-16{fill:#4d4d60;}.cls-17{fill:#486d79;}.cls-18{fill:#414154;}.cls-19{fill:#ecbcb4;}.cls-20{fill:#466977;}.cls-21{fill:#4b707b;}.cls-22{fill:#658a97;}.cls-23{fill:#ecbdb4;}.cls-24{fill:#e9ddd5;}.cls-25{fill:#505062;}.cls-26{fill:#ecbfb7;}.cls-27{fill:#ecc2ba;}.cls-28{fill:#ecc5bd;}.cls-29{fill:#6a8f9d;}.cls-30{fill:#5a7f8b;}.cls-31{fill:#3f3f52;}.cls-32{fill:#ebb4aa;}.cls-33{fill:#5c828e;}.cls-34{fill:#a1594b;}.cls-35{fill:#a85e51;}.cls-36{fill:#9b5345;}.cls-37{fill:#ebb1a7;}.cls-38{fill:#a45b4e;}.cls-39{fill:#628894;}.cls-40{fill:#618693;}.cls-41{fill:#a55b4e;}.cls-42{fill:#587e89;}.cls-43{fill:#ecbeb6;}.cls-44{fill:#5e8490;}.cls-45{fill:#ecc7c0;}.cls-46{fill:#975041;}.cls-47{fill:#ebaea4;}.cls-48{fill:#ecbab2;}.cls-49{fill:#ac6155;}.cls-50{fill:#424255;}.cls-51{fill:#a1584a;}.cls-52{fill:#9f5648;}.cls-53{fill:#b06559;}.cls-54{fill:#ad6256;}.cls-55{fill:#ebb7ae;}.cls-56{fill:#9c5446;}.cls-57{fill:#ebb4ab;}.cls-58{fill:#ebaa9f;}.cls-59{fill:#3c3c4f;}.cls-60{fill:#567b87;}.cls-61{fill:#404053;}.cls-62{fill:#ebaca2;}.cls-63{fill:#ebb0a6;}.cls-64{fill:#9a5244;}.cls-65{fill:#e8dbd3;}.cls-66{fill:#e89842;}.cls-67{fill:#b5685c;}.cls-68{fill:#557a85;}.cls-69{fill:#3e3e51;}.cls-70{fill:#ebc2ba;}.cls-71{fill:#e8943f;}.cls-72{fill:#4a4a5c;}.cls-73{fill:#ecc9c3;}.cls-74{fill:#e7903d;}.cls-75{fill:#b86a5f;}.cls-76{fill:#944e3f;}.cls-77{fill:#8f4a3b;}.cls-78{fill:#bb6d63;}.cls-79{fill:#3d3d50;}.cls-80{fill:#924c3d;}.cls-81{fill:#535060;}.cls-82{fill:#c07369;}.cls-83{fill:#eaa89d;}.cls-84{fill:#965748;}.cls-85{fill:#3a586e;}.cls-86{fill:#4d4d5f;}.cls-87{fill:#474759;}.cls-88{fill:#444456;}.cls-89{fill:#e99f46;}.cls-90{fill:#eaa348;}.cls-91{fill:#464658;}.cls-92{fill:#eaa64a;}.cls-93{fill:#e1cbc4;}.cls-94{fill:#e0c8c1;}.cls-95{fill:#e4d2ca;}.cls-96{fill:#3b3b4e;}.cls-97{fill:#b16559;}.cls-98{fill:#ba6d62;}.cls-99{fill:#b6695e;}.cls-100{fill:#b3675b;}.cls-101{fill:#c27369;}.cls-102{fill:#476b78;}.cls-103{fill:#7398a6;}.cls-104{fill:#7297a6;}.cls-105{fill:#496d79;}.cls-106{fill:#ecc4bd;}.cls-107{fill:#eccbc5;}.cls-108{fill:#ece4db;}.cls-109{fill:#4c4c5e;}.cls-110{fill:#49495c;}.cls-111{fill:#ecb9b0;}.cls-112{fill:#ebb3aa;}.cls-113{fill:#eccec8;}.cls-114{fill:#7499a8;}.cls-115{fill:#6d92a0;}.cls-116{fill:#7196a5;}.cls-117{fill:#7095a4;}.cls-118{fill:#6f94a2;}.cls-119{fill:#436675;}.cls-120{fill:#e6d7cf;}.cls-121{fill:#e99c44;}.cls-122{fill:#ab6054;}.cls-123{fill:#426474;}.cls-124{fill:#ecccc5;}.cls-125{fill:#d47471;}.cls-126{fill:#d57471;}.cls-127{fill:#934c3d;}.cls-128{fill:#e7d8d0;}.cls-129{fill:#ecc1b9;}.cls-130{fill:#ecc8c1;}.cls-131{fill:#e5d5cd;}.cls-132{fill:#904a3b;}.cls-133{fill:#8c4738;}.cls-134{fill:#3d5b6f;}.cls-135{fill:#e4d1c9;}.cls-136{fill:#bd6f64;}.cls-137{fill:#c07167;}.cls-138{fill:#7196a4;}.cls-139{fill:#6c919f;}.cls-140{fill:#6e93a2;}.cls-141{fill:#ecc1ba;}.cls-142{fill:#476a77;}.cls-143{fill:#4e4e60;}.cls-144{fill:#515163;}.cls-145{fill:#eae1d8;}.cls-146{fill:#ece3da;}.cls-147{fill:#ebada3;}.cls-148{fill:#e5d4cc;}.cls-149{fill:#e8dad2;}.cls-150{fill:#434355;}.cls-151{fill:#454558;}.cls-152{fill:#ebaba0;}.cls-153{fill:#ebaaa0;}.cls-154{fill:#ecc9c2;}.cls-155{fill:#ebb6ac;}.cls-156{fill:#ecc5be;}.cls-157{fill:#e9ddd4;}.cls-158{fill:#bca39c;}.cls-159{fill:#ebe1d8;}</style></defs><g id="Livello_2" data-name="Livello 2"><g id="Livello_1-2" data-name="Livello 1"><path class="cls-1" d="M197.77,313.63c3.42,6.27,1,13.92-5.76,18.59-1,.66-2.45.77-2.6,2.35-22.08,1.09-44.94.28-67.27.45-10.46-.77-21.92,1.79-31.85-1.15-1.23-6.81-1.65-13.63.23-20.41C124.36,311.74,164.1,311.28,197.77,313.63Z"/><path class="cls-2" d="M193.89,259.74q0,20.6-.07,41.18c-5.61-1.4,2.84-35.59-5.49-33.25-29.16-.22-58.26,1.32-87.44.71-12.09,1.23-4.51-9.71-1-15.08,26.79-.18,53.65.09,80.46-.08C185.53,252.65,198.55,250.54,193.89,259.74Z"/><path class="cls-3" d="M166.17,17.46c12.6-2.35,24-7.9,32.77-17.46C203,10.1,201.56,19.52,196,28.94c3.32.5,13.46-3.71,12.49,1-1.13,6.48-.49,17.68-9.84,15.61-8.4.3-16.89-.65-25.22.4-1.59.33-3.06,1.87-4.83.5C165.61,37.49,165.77,27,166.17,17.46Z"/><path class="cls-4" d="M193.13,292c-.26,4.06.43,7.95.77,12-26.79,3.37-55.26.14-82.6,1.23-6.9-.86-14.11,2.34-20.7-.2a16.12,16.12,0,0,1-.13-12.46c4-1.69,8.31-1.66,12.47-1.68C132.8,291.72,163.83,288.58,193.13,292Z"/><path class="cls-5" d="M90.74,304.69c34.38-1.51,68.77-.41,103.16-.75.71,3.47,3.35,6.16,3.87,9.69l-107,.06A7.94,7.94,0,0,1,90.74,304.69Z"/><path class="cls-6" d="M56.92,94.71c1.77-9.11,12.9-3.82,19-3.31,10.46,3.82,12.63,17.29,15.58,26.8.35,2,1.46,5.67-1.79,6-8.32-.1-16.58,1.31-24.9,1-3.74-7.55-3.92-16.64-7.74-24.41C56.28,98.79,55.6,96.77,56.92,94.71Z"/><path class="cls-7" d="M56.92,94.71c8.57,33.94,13.14,23.78-23.16,24-3-1.73-2.48-5.1-3.55-7.73-2.26-7.38-5.59-13.94-13.14-17.3a.92.92,0,0,1-.51-1.21C29.76,85.72,43.53,96,56.92,94.71Z"/><path class="cls-8" d="M123.56,20.55a22.84,22.84,0,0,1,9.56-2.31c5.13-1.92,3.28,18.87,4.3,22.42-.29,16.53,7.42,37.11-5.52,50.39-4.09,3.84-6.28,1-5.76-3.06,1.45-5.7,0-11.4-.25-17.06C125.78,54.26,122.09,36.88,123.56,20.55Z"/><path class="cls-9" d="M250.59,83.49l15,20.91a4.37,4.37,0,0,1-3.48,1.78c-9.45.92-18.83,2.49-28.3,3.13-6.43,1.43-9.83.35-11-6.74,8-6.71,17.35-12,25.45-18.77C249,83.32,249.71,82.81,250.59,83.49Z"/><path class="cls-10" d="M123.56,20.55q1.51,17.58,2.32,35.21c-.62,10.83,4.49,22.77.74,33-2.65-2.5-6.61-3.38-8.46-6.88-1.32-19-2.61-38.1-3.7-57.16A22.78,22.78,0,0,1,123.56,20.55Z"/><path class="cls-11" d="M241.07,194.61l-.07,2.13c-11.26,3.12-24.12-.05-35.9,1.62-3.51-1.1-3-6.18-4.62-9-.37-2.14-3.22-5.29-.5-6.85,12.45-1.24,25.11-.11,37.63-.48C240.9,183,241.1,191.5,241.07,194.61Z"/><path class="cls-7" d="M90.63,118a191.31,191.31,0,0,0-6.56-19c4.69,1.41,26.38-.06,26,5,2.41,11.07,13.55,6.07,15.9,11.95,0,1.84.8,5.08-1.33,5.94C116,116.91,100.13,122.28,90.63,118Z"/><path class="cls-12" d="M138.55,67.08c-2.81-13.21-1.74-27.09-3.13-40.56-.23-2.77.81-6.2-2.3-8.28,3-1.21,6.15-.69,9.2-1,4.3-.05,4.51,0,4.85,4.17.92,11.28,2.17,22.55,2,33.9-1.42,4.25-6.76,5.4-8.46,9.68C140.09,65.75,140.06,67.17,138.55,67.08Z"/><path class="cls-13" d="M292,151.7c1.19,2.57,6.45,9.91,2.11,11.13-17.45-6.09-35.71-10-53.66-14.53.14-4.67-4.92-12.28,3.93-9.69C260.18,143.12,276.62,146.31,292,151.7Z"/><path class="cls-14" d="M114.46,24.73c3.76,18.85,3.28,39,4.57,58.2-3.13,2.29-8.94,3-8.63-2.48-1.33-16.69-2.51-33.4-3.26-50.14C109.34,28.14,111.56,26,114.46,24.73Z"/><path class="cls-15" d="M240.19,148c17,1.62,33.33,8.29,50,12.15,1.52.42,3.69.29,3.94,2.72l-9,5.31c-16.57-5.87-33.94-9.44-51-14a3.67,3.67,0,0,1-2.28-5.63C234.6,147.19,237.3,146.12,240.19,148Z"/><path class="cls-16" d="M148.26,56.64c-.17-12.29-1.5-24.52-2.22-36.77,0-3.55-4-1.95-6.28-2.4,4.37-.43,18.41-2.22,18.6,3.81.73,7.58,1.1,15.18,1.48,22.77-.19,4.61,3.59,12.53-3.71,12.8C153.51,56.58,150.84,58.34,148.26,56.64Z"/><path class="cls-17" d="M3,143A51.15,51.15,0,0,1,.84,116.51c8.72-4.76,5.92,6.09,8.57,10.83.41-2.37.82-4.51,1-6.7.59-5.35,8.14-5.44,9.87-.78,4.68,10.42-3.38,36-15,19.06C6.6,140.78,5.47,143.36,3,143Z"/><path class="cls-18" d="M107.14,30.31c3.69,10.2,1.09,22.24,3.08,33,.74,7-.15,14.13,2.11,20.94-1.41,2.5-2.37,5.35-5.18,6.77q-2-2.22-3.89-4.45C102.11,70.78,101,55,100.14,39.19A27.88,27.88,0,0,1,107.14,30.31Z"/><path class="cls-19" d="M109.35,104.52C109,102,107,101.38,105,101c1.54-.14,3.23-.09,2.93-2.44,23.26-3.16,48.18,0,72-1.22,4.63-.22,9,.86,6.8,6.55C161.61,106.5,134.73,104.87,109.35,104.52Z"/><path class="cls-20" d="M3,143c.48-1,1.39-.94,2.28-.94,3.53,12.05,12.85,9.53,16.86-.8,1.13-5,7.59-4.67,11.56-3.31,2.64,6.76-2.56,17.18-6.79,22.75C16,171.62,3.25,153.88,3,143Z"/><path class="cls-21" d="M6.85,118c-1.35-3.05-4-.88-6-1.53,1.27-25.31,22.22-34,30-6-2.11,1.7-4.66.79-7,1.2-6.32-2.59-11.18-7.44-14.69,2C8.48,115,8.89,118.55,6.85,118Z"/><path class="cls-22" d="M27.84,190c.44-4.88-.35-9.9.93-14.65A128.18,128.18,0,0,1,50.91,174c4.3,0,3.47,5.49,3.46,8.5-.36,9.45-.36,9.37-9.75,9.48C39.15,191.3,32.78,192.24,27.84,190Z"/><path class="cls-23" d="M292,151.7c-17.8-2.71-34.78-10-52.52-12.69-2.94-1.82-3.49-4.67-3.36-7.81,1-1.49,2.34-1.12,3.66-.78,15.73,4.06,31.33,8.57,47.14,12.32C290.08,144.37,290.83,148.62,292,151.7Z"/><path class="cls-24" d="M204.33,197.49c12.2-1.49,24.45-.45,36.67-.75,4,8.57-5.56,8.65-11.22,11.94-7.54-1.07-15.27.6-22.73-.83C204.68,206.19,203.12,200.29,204.33,197.49Z"/><path class="cls-25" d="M155.54,55.88c3.91.63,4.17-1.75,3.94-4.68-1.53-6.35.05-31.91-4.47-33.51l11.16-.23c2.21,9.48.36,19.73,3,29.32-.76,3.45-.65,7.12-2.59,10.27C163.69,57.71,157.12,59,155.54,55.88Z"/><path class="cls-26" d="M288.21,143.48c-16.82-2.14-32.88-8.37-49.36-12.34-.89-.25-1.67-.53-2.32.39-3-1.8-3.49-4.66-3.39-7.8,1.5-2,3.42-1,5.1-.52,12.95,3.44,25.92,6.82,38.82,10.42C283.06,133.92,286.9,137.68,288.21,143.48Z"/><path class="cls-27" d="M284.44,136c-16.48-2.73-32.36-8.47-48.62-12.38-.9-.24-1.68-.48-2.3.45a8.24,8.24,0,0,1-3.68-8.55c16.67,1.47,33.44,8.61,50,12.26A40.52,40.52,0,0,1,284.44,136Z"/><path class="cls-28" d="M279.88,127.78c-17-1.56-33.17-9.15-50.11-12-2.9-1.4-3.68-3.91-3.57-6.89,2.49.63,4.85-.79,7.32-.49,3.19,2.07,6.95,2.53,10.5,3.47,9.46,2.52,18.89,5.18,28.39,7.54C276.73,120,278.32,124.27,279.88,127.78Z"/><path class="cls-29" d="M28.57,175.68c-.37,3,.67,6.1-.66,9-1.2-4.33,3-22.34-3.74-20.31a4.26,4.26,0,0,1-3.21-.56c5-1.94,7.23-6.44,9.8-10.63,11.91,1.93,24.25-.11,36,2.18,2.14,5,.9,7.23-4.37,7.18-9.9-.11-19.56,1.82-29.32,3C27.16,165.89,31.33,172.5,28.57,175.68Z"/><path class="cls-30" d="M14.22,247.16c-1-6.07-.25-12.13.2-18.19,1.66-1.48,3.74-1.33,5.65-1.08,7.1,2.38,27.74-2.65,30.43,3.65-1.64,3.21-4.69,9.05-8.61,8.94-7.08-1.56-14.35.05-21.49-1.08C13.23,237.48,17.11,243.69,14.22,247.16Z"/><path class="cls-31" d="M100.14,39.19c1.6,1.51,1.59,3.72,1.59,5.49,0,9.66,1.57,19.22,1.6,28.87-.09,4.22,2.29,9.23-.07,13C91.83,74.4,91,52.12,100.14,39.19Z"/><path class="cls-3" d="M137,334h8.86c2.7,4.9.58,11,1.17,16.42-.34,3.43,1.13,7.41-1.18,10.37H94.37c2.8-3.88,26.33-.84,32.79-1.71,6.8-.18,6.18.89,7-6.45C135.6,346.54,133.8,339.53,137,334Z"/><path class="cls-32" d="M232.83,153.25c16.55,2.62,32.53,8.23,48.82,12.22,1.41.39,3.4.4,3.51,2.67-2.13,1.46-4.19,3-6.73,3.77-14.75-4.3-29.48-8.69-44.58-11.68C232.16,158.1,231.36,155.84,232.83,153.25Z"/><path class="cls-33" d="M48.58,229.73c-11.39,0-22.79.14-34.16-.76.94-14.77,18.31-11.22,28.39-9C43.58,224,48.9,225.39,48.58,229.73Z"/><path class="cls-34" d="M228.3,99.26c-1.91,2.31-7.82,5.23-7.42,0,.77-16.31-.32-32.71.48-49,.49-4.86,8.25-1,7.33,2.9C228.5,68.54,229.32,84,228.3,99.26Z"/><path class="cls-35" d="M211.19,45.15a19.23,19.23,0,0,1,8.26,1.59c-3.87,15,1.43,31.76-2.3,46.71-2.36,2.63-6.6-4.85-7-7C210.58,72.94,208.16,58.1,211.19,45.15Z"/><path class="cls-36" d="M73.43,360.13c-5.39-.46-7.24-5.05-6.42-9.86,0-13,0-26,0-39-.86-9.36,4.83-7.84,7.25-.58C74.17,327,76.26,344.19,73.43,360.13Z"/><path class="cls-37" d="M234.29,160c1-1.26,2.2-.58,3.4-.26q19,5,38,10c1.21.31,2.49.55,2.7,2.13-2.55,1.4-4.45,3.89-7.48,4.49-11.67-3.25-23.64-8.21-35.67-8.76C233.52,165.29,232.71,162.81,234.29,160Z"/><path class="cls-38" d="M216.37,93.85c1.83-14.31.17-29.07.72-43.53-1.05-4.73,4.14-4,6.92-2.11-2.49.47-1.65,2.47-1.65,3.91-.77,15.93,1.38,32.45-.87,48.1A7.34,7.34,0,0,1,216.37,93.85Z"/><path class="cls-39" d="M27.84,190c7-.39,14,1,21.06.85,5.86.56,4.09-4.45,4.34-8.38,2.84,1.34,1.51,3.94,1.82,6,3.15,24.65-19,5.19-27.9,15.7C26.88,199.44,27.52,194.72,27.84,190Z"/><path class="cls-40" d="M27.16,204.2c2.29-11.58,21.78,2.47,26.78-6.72,1.74,3.31,2.84,14.23-2.76,13.94-7.91-.42-16.75.44-24.18-1.94Z"/><path class="cls-41" d="M61.47,341.32C58,340.16,54.53,338,55,333.81c0-12.18,0-24.37,0-36.55-.33-9.31,6.89-4.75,7.75.79-.38,12.53-.05,25.07-.19,37.6C62.6,337.59,63,339.67,61.47,341.32Z"/><path class="cls-42" d="M14.22,247.16c.69-3.16-1.87-10.29,3.54-9.18,7.79,2.3,18.46-1.68,25,2.36-1.2,3.59-3.75,8.24-7.7,8.94C29.69,247.66,17.3,251,14.22,247.16Z"/><path class="cls-43" d="M186.41,103.75c0-5.22,0-5.23-5.09-5.23H107.88c0-.74,0-1.48-.07-2.23,13-3.26,28.06.6,41.58-1.54.34-.12.79-.38,1.05-.22,2.78,1.82,5.51,1.24,8.24-.07,3,1,6.08,1.59,8.91-.6,6.45,3.19,5.06,2.87,8.45-3,3.66,1,9-1.78,11.76,1.51C187.91,95.49,189.85,102.58,186.41,103.75Z"/><path class="cls-44" d="M27,209.48c7.55-.53,15,1.14,22.57.76a2.17,2.17,0,0,1,2.25,1c-.72,3.41-3.6,5.25-5.55,7.77-1,1-1.43,3-3.52,2.35-.5-2-2.16-1.34-3.37-1.31-6.11-.47-12.37-.41-18.36-1.55C25.56,217,27,213.93,27,209.48Z"/><path class="cls-35" d="M57,292.08c-1.92,15.24-.16,31-.74,46.35-2.51-1.38-5.93-2.37-5.63-5.88.7-14.84-1.69-30.61,1-45C54.7,287.49,55.84,289.78,57,292.08Z"/><path class="cls-45" d="M276.14,121c-13.6-2.5-26.84-6.7-40.16-10.39-1-.31-3.11.11-2.46-2.23,11.78-3,22.55.88,33.88,4C272,112.85,274.21,117.31,276.14,121Z"/><path class="cls-46" d="M73.43,360.13q0-25,0-50c3.89,1.47,5.34,4.62,5.81,8.46-.3,11.92,0,23.84-.15,35.75.37,4.27-.33,7.38-5.39,6Z"/><path class="cls-47" d="M235.77,167.53c.3-1.87,1.53-1.59,2.81-1.25q14.67,3.93,29.33,7.86c1.27.34,2.77.5,3,2.26a27,27,0,0,1-7.47,4.62C258.45,176.57,229.76,176.26,235.77,167.53Z"/><path class="cls-48" d="M13.54,281.45c-.39-2.85.86-6.42,4.38-5.81,14.21,1.19,29.26-1.77,43,1.3.77,3-.53,4.62-4.77,6.08C42.14,281.26,27.07,284.76,13.54,281.45Z"/><path class="cls-49" d="M51.69,288.13q0,24,.05,47.91c-2.61-1.44-6.11-2.76-5.63-6.33C47.52,321.5,41.66,288.34,51.69,288.13Z"/><path class="cls-50" d="M208.79,218.46l.69,9c-6.52-1.78-13.09,1.27-19.53-.17-2.38-2.9-3.5-6.08-2.12-9.81C191.54,216.54,209.79,212.32,208.79,218.46Z"/><path class="cls-43" d="M61.26,277.7c-15.14-2.51-31.07,1-46.22-1.51,1.54-1.75,1.6-6.21,4.78-5.25,14,2.38,28.29.71,42.41,1.06C66.56,271.94,64.49,277.46,61.26,277.7Z"/><path class="cls-51" d="M61.47,341.32c.62-14.59-1.26-29.73.72-44.06,3.08,0,3.41,2.44,4,4.63.47,15.39.19,30.78.15,46.16,0,1.61-.19,3.28-2,4.09C61.48,349,64.84,343.81,61.47,341.32Z"/><path class="cls-52" d="M228.3,99.26c-2.34-15.55.08-33.29-.71-49.55a10.7,10.7,0,0,1,4.62,2.23c.63,8,.25,15.92.23,23.88C231.23,82.92,236.26,95.73,228.3,99.26Z"/><path class="cls-53" d="M47.22,292.62c.63,13.68-1.24,27.9.77,41.32-2.79-1.79-7.62-2.48-6.44-6.76,0-9.4.38-18.8-.27-28.19C41.55,296.11,44.23,293,47.22,292.62Z"/><path class="cls-54" d="M198.42,44.63c4.24.12,8.66-.74,12.77.52-6.66,5.51.37,28.44-3.89,36.48C194.17,82.62,207.94,50.35,198.42,44.63Z"/><path class="cls-55" d="M13.54,281.45c14.46.5,29.12-1.07,43.47.77-.52,3.1-2.34,4.73-5.5,4.85-12.38-1.43-24.84-.15-37.24-1.05C13.07,284.65,13.63,283,13.54,281.45Z"/><path class="cls-56" d="M232.12,96.33c-2.27-13-.09-27.47-.81-40.95,0-1.2-.37-2.54.9-3.44a9.66,9.66,0,0,1,4.33,2.34C234.47,62.53,240.2,95,232.12,96.33Z"/><path class="cls-57" d="M14.27,286c1.07-1.29,2.54-.79,3.85-.8,11.47.46,23.31-1.44,34.52,1.53-1.87,3.92-6.82,4.89-10.83,4.08-8.19-.09-16.39.42-24.57-.27A6.84,6.84,0,0,1,14.27,286Z"/><path class="cls-52" d="M64.34,352.14c2.34-16.7.16-34.35.92-51.36,2.22.38,3.72,1.44,3.68,3.94-2.76,16.83,1.35,35.08-1.59,51.89A7.32,7.32,0,0,1,64.34,352.14Z"/><path class="cls-58" d="M241.07,194.61c-5.52-20.1-6.59-18.13,13.11-12.53C263.46,184.36,243.5,192.6,241.07,194.61Z"/><path class="cls-59" d="M193.89,259.74c-2-14-6.35-19.41,11.74-18.73C212.42,241.28,198,259.5,193.89,259.74Z"/><path class="cls-60" d="M14.24,247.71c7.35.32,14.74-.76,22,.84-1.76,3.14-3.64,8.8-7.61,9.13-4.38-.8-10.52-2.09-13.72,1.54C13.93,255.43,14.24,251.56,14.24,247.71Z"/><path class="cls-26" d="M126.65,90.06c1.62,4.67,3.39.7,5.1.09,6,1.55,12.79-1.15,18.29,1.63.35,3.52-.11,4.09-3.72,4.09-12.79.41-25.88-.73-38.51.42-1.44-1.47,0-3-.06-4.49C113.42,88.92,120.49,91.78,126.65,90.06Z"/><path class="cls-61" d="M190,226.77c5.54-.39,11.11-.54,16.6-1.3,2.15-.3,2.09,1.14,2.91,2,.16,3.09.57,6.19-.54,9.2C201.33,231.71,186.34,242.82,190,226.77Z"/><path class="cls-62" d="M256,185.52c3.09-5.6-25.3-2.73-19.42-12.78,8.84.91,17.09,4.31,25.7,6.22C267.08,180.81,257.77,184.56,256,185.52Z"/><path class="cls-63" d="M17.24,290.56c.68-1,1.71-.86,2.69-.86,9.59.41,19.43-1,28.86.77-1.74,2.39-4.14,5-6.95,6C33.85,295.54,21.62,299.29,17.24,290.56Z"/><path class="cls-64" d="M235.08,94.12c0-12.19,0-24.38,0-36.58-1-4.18,3.22-3.68,5.05-1-.21,11.25-.5,22.53.26,33.76C239.17,92.39,236.88,92.91,235.08,94.12Z"/><path class="cls-46" d="M240.37,90.34c-2.65-2.37-2.33-30.51-.26-33.76,1.51,1,3.48,1.21,4.46,3-.19,9.25-.51,18.5.22,27.74A9.06,9.06,0,0,1,240.37,90.34Z"/><path class="cls-65" d="M208.79,218.46c-1.12-3.77-4-7.09-2.09-11.23,5.31.84,20.1-1.89,23.08,1.45Z"/><path class="cls-66" d="M145.88,360.79c.4-2.57-1-6.36,2-7.6,7.36-3.27,14.34-7.29,21.48-11,5.14-4.42,7.75,4.06,2.56,5.69-6.73,2.93-12.83,7.12-19.56,10-2.34,1-.67,1.87-.42,2.87Z"/><path class="cls-67" d="M42,297.86A130,130,0,0,1,42,330.78c-3.42-1.31-5.44-3.7-4.91-7.49C38.46,316.45,33,299.1,42,297.86Z"/><path class="cls-68" d="M15,259.22c-.15-2.47.87-3.69,3.43-3.25,3.61.61,7.53-1.38,10.9,1.28-2.39,6.33-7.55,11.47-12.56,15.79C15.94,268.46,14.79,263.92,15,259.22Z"/><path class="cls-69" d="M191.57,235c7,.24,22.64-5.17,15.89,7.69-1.5-2.05-3.19-.16-4.78-.21-3.21.41-9.49-1.71-9.64,3.21C191,245.7,190.08,236.36,191.57,235Z"/><path class="cls-70" d="M126.65,90.06c-.5,3.61-15.25,1-18.9,1.74l-.6-.78C110.13,81.7,124.14,79.67,126.65,90.06Z"/><path class="cls-71" d="M152,360.78c-.84-1.1-2.43-.14-3.7-1.52,8.71-4.09,16.27-10.12,25.43-12.58,3.79,7.4-9.49,8.43-14.09,12.47,4,.68,11.82-1.63,13.32,1.65Z"/><path class="cls-72" d="M177.43,334h4.49c3.52,4.55-1.62,22.17,2.73,25,1.2.2,2.72.1,3.46,1.26-3.59.71-11.87,2.52-11.77-2.95C176.87,349.74,174.68,341.05,177.43,334Z"/><path class="cls-73" d="M271.76,114.24c-8.11-2.14-17.71-2.94-24.71-7.36l18.53-2.48C267.64,107.68,270.25,110.61,271.76,114.24Z"/><path class="cls-74" d="M172.91,360.8c-5.2-1.43-10-.29-15.41-.63,3.2-4.26,8.25-5.08,12.64-7.52,5.31-1.62,3.18-7.07,3.54-11.22a6.75,6.75,0,0,1,0-7.45,1.61,1.61,0,0,1,.69,0c2,1.61,2.07,25.13,0,26.8Z"/><path class="cls-75" d="M37.48,302.35c1.75,8.68.39,17.54.79,26.32-3.11-1.4-6.32-3-5.63-7C33.63,315.62,29.43,304.38,37.48,302.35Z"/><path class="cls-62" d="M42,297.86c-4.08,4.74-10,4.76-15.69,3.86A35.86,35.86,0,0,1,20.91,295c7.56-.57,15.07.6,22.62.71Z"/><path class="cls-76" d="M244.79,87.28c-1.55-.18-1.52-1.33-1.52-2.48.79-4.64-1.74-23.82,1.3-25.26,1.18,1.15,3.29,1.08,3.87,3a119.25,119.25,0,0,0,.19,21.79A8.33,8.33,0,0,1,244.79,87.28Z"/><path class="cls-77" d="M252.12,65.57C263.07,75.28,265,73.74,252,82,248.69,81.06,248.43,66.28,252.12,65.57Z"/><path class="cls-78" d="M33.73,306.07q0,10.11.05,20.22L27.69,323c-.36-5-1.94-11.47,3.12-14.51C31.57,307.38,31.9,305.81,33.73,306.07Z"/><path class="cls-79" d="M191.18,336.05c7.9,3.65,1.67,30.8-2,20.35C189.52,352.77,186.92,336.14,191.18,336.05Z"/><path class="cls-80" d="M252.12,65.57A22.87,22.87,0,0,0,252,82a6.75,6.75,0,0,1-3.39,2.38c-1.34-.58-1.63-1.69-1.63-3,.89-5.31-1.89-14.9,1.44-18.76C249.73,63.48,251.53,63.78,252.12,65.57Z"/><path class="cls-81" d="M174.39,360.79q0-13.4,0-26.8h3.06c.57,8.83-1.16,18.21.73,26.76Z"/><path class="cls-61" d="M191.18,336.05c-1.85,7.14-1.46,15.25-.18,22.68a3.31,3.31,0,0,1-3.83,1.36c-2.69-6.52-.49-14.66-1.07-21.72-.27-2.2.12-4.09,3.31-3.8Z"/><path class="cls-82" d="M27.8,311.47c.77,3.84,1.31,7.67-.11,11.48C17.39,319.35,21.84,317.18,27.8,311.47Z"/><path class="cls-83" d="M33.73,306.07l-2.92,2.37c-.68-2.8-3.24-4.33-4.53-6.73,3.9-1.62,8-.34,12-.77C37.3,303.09,34.89,304,33.73,306.07Z"/><path class="cls-84" d="M74,360.24l3.92-.07c3.17-2.87,11.46,1.69,10.85-4.85.66-2.81-1.76-13.19,2.12-13,1.31,5.91,1.83,13-.23,18.49C85.1,360.74,79.52,361.61,74,360.24Z"/><path class="cls-18" d="M90.66,360.78a6,6,0,0,1,.08-.61,2.56,2.56,0,0,1,3.65,0c0,.2,0,.41,0,.62Z"/><path class="cls-85" d="M68.94,304.72c-4.86-6.38-10.83-11.61-16.62-17.23,6.65-7.19,13.45-14.62,19.94-22.15,3.14-3.38,8.83-.51,13-1.53,2.69,1.48,4.13,4.18,6.11,6.37,1,21.07-1.57,42.18-.64,63.48.94,1.62,1.3,3.22-.11,4.77-1.88.13-1.58-1.54-2-2.53C84.52,324.31,77,313.91,68.94,304.72Z"/><path class="cls-25" d="M137,334c-.76,8.12-1.54,16.24-2.25,24.36-.59,3.29-5.14,1.26-7.48,1.8-2-1.16.1-25,2.24-26.16Z"/><path class="cls-86" d="M129.54,334q-1.11,13.08-2.24,26.16h-7.48c-1.78-2.31-.49-4.81-.36-7.2.79-6.21,0-13.24,2.6-19Z"/><path class="cls-72" d="M122.06,334q-1.12,13.08-2.24,26.16h-6.74c-2.19-.72,0-25.54,2.25-26.16Z"/><path class="cls-87" d="M115.33,334c-1,8.7-2,17.39-2.25,26.16h-6.73c-2.33-2.91-.17-22.54,1.5-26.16Z"/><path class="cls-88" d="M107.85,334c.22,8.76-1.82,17.39-1.5,26.16H99.62c-1.9-2.42-.52-5.05-.39-7.56.79-6.1-.08-13.05,2.63-18.61Z"/><path class="cls-18" d="M101.86,334q-1.12,13.08-2.24,26.17H94.39c-2.17-.79.14-25.27,2.23-26.17Z"/><path class="cls-31" d="M96.62,334c-.82,8.71-2,17.4-2.24,26.16H90.74q-.1-9-.19-17.95c-1-1.15-1.65-2.36-.52-3.8s.34-3.19.69-4.76Z"/><path class="cls-89" d="M173.68,334c0,1,0,2,0,2.95-7.51,5.08-15.83,8.81-23.87,13-1.18.56-2.37,1.56-3.8.52v-4.5c6.85-4.67,14.43-8.09,21.69-11.92Z"/><path class="cls-90" d="M167.71,334c-5.82,5.08-14.39,8.55-21.69,11.92v-4.5c4-3.35,9.06-4.79,13.45-7.42Z"/><path class="cls-91" d="M184.92,360.17c-5.85,2.36-1.9-22-3-26.17h3C186.74,335.53,186.74,358.49,184.92,360.17Z"/><path class="cls-92" d="M159.47,334c-.81,2.51-3.35,2.6-5.19,3.58-2.67,1.42-5.24,3.13-8.26,3.84,0-2.48-.09-5-.13-7.43Z"/><path class="cls-14" d="M184.92,360.17V334c1.3-.09,2.64-.41,3.73.68-3.3,0-.72,21.4-1.48,25.41Z"/><path class="cls-93" d="M90.74,280c.71-4.56-2.44-12.74,3.61-14.32,1.22,1.61,3,1.58,4.74,1.58,30.13.4,60.25-.13,90.35-.81,6.69-.42,2.6,8.74,3.69,12.81-5.69,2.35-12.89,1.09-19.09,2C146.47,280.11,117.72,283.32,90.74,280Z"/><path class="cls-94" d="M90.74,280c34.13-.2,68.27.59,102.39-.74V292c-34.13.36-68.27-.82-102.39.75Z"/><path class="cls-95" d="M192.35,244c1.36,3,.53,6.51.84,9.74-29.55,1.49-59.13.45-88.69.72-7.68,1.91-3.79-9.87-.28-11.81C133.41,244,163.72,240.52,192.35,244Z"/><path class="cls-69" d="M103.43,243.22q-1.56,5.19-3.11,10.38c-.21.11-.42.21-.64.3-5-1.59-18.05,4.15-15.35-5.49.46-6.5.45-6.61,6.77-7.39,4-.5,8.08-1,12.15-.33A1.81,1.81,0,0,1,103.43,243.22Z"/><path class="cls-96" d="M84.75,253c3.94-.2,7.91.44,11.82-.67,1.24-.34,2.86-.44,3.11,1.6-1.8,5.81-4.48,11.45-9,15.6-3.12-.4-3.55-3.51-5.29-5.29C83.06,261.74,82.74,255.47,84.75,253Z"/><path class="cls-97" d="M198.42,44.63c4.66.18,4.63,3.26,4.51,6.8-.6,8.67.82,17.51-.81,26.09-12.51-4-.34-24.75-8.19-32.89Z"/><path class="cls-98" d="M172.92,45.28c3.18-1.52,6.53-.45,9.79-.65,6.32.81,6.26.81,6.34,7.6.07,5.54-.43,11.1.56,16.61-1.56,2.19-5.85.84-8-.31-3.14-4.84,2.72-21.41-3.82-22.15C176.19,46.23,174.12,46.66,172.92,45.28Z"/><path class="cls-99" d="M189.41,69.16c-3.4-4.24-.81-14-1.45-19.59.22-5.4-1.62-3.55-5.25-4.94,4.8.48,12.81-2.07,11.56,5.47,0,6.7.09,13.4,0,20.11C192.12,72.31,190.77,70.68,189.41,69.16Z"/><path class="cls-100" d="M193.9,70.75c-3.33-5.51,3.37-25.81-4.46-26.12,4.31-.4,9.19.09,8.27,5.66-.23,7.6-.09,15.2-.1,22.8C195.81,73.2,194.17,73.07,193.9,70.75Z"/><path class="cls-101" d="M172.92,45.28l.76,0c2.18,5.79,1.53,13.31.19,19.48-2.91,3.53-8.15-5.72-7-8.21-.25-3.51-.06-6.92,2.3-9.81C170.52,46.47,171.45,45.2,172.92,45.28Z"/><path class="cls-102" d="M64.56,124.77a165.1,165.1,0,0,1,26.76-1.5c3.09,3.74,3.51,20.74,1.8,25.41a1.23,1.23,0,0,1-1.25.16C88.72,147,85.36,147.65,82,148c-15.65,1.63-16.49,1.11-16.7-14.54C65.25,130.56,63.78,127.49,64.56,124.77Z"/><path class="cls-103" d="M92.14,127a73.81,73.81,0,0,1-1.51-9c10.32.11,20.61,1.33,30.93.68,3.84-.3,6,8.31,3.46,10.77C114.26,127.76,102.35,131,92.14,127Z"/><path class="cls-104" d="M64.56,124.77l.63,2.24c-8.64,3.41-18.08-.4-27.11.39-4.62.54-6.74-5.82-5-9.39,8.77,0,17.55-.28,26.31.7,1.27.14,3.14.79,3.59-1.49C64.36,119.56,64.46,122.16,64.56,124.77Z"/><path class="cls-105" d="M33.08,118c0,6.64,5.45,14.26.68,20.25l-9,0c-2.58-4,1.29-9,.52-13.49.63-4.75-2.58-8.72-2-13.39,2.36-1.71,5-.45,7.55-.84C32.19,112.82,32.18,115.55,33.08,118Z"/><path class="cls-106" d="M135.2,85.68q1.26-3,2.54-6c11.83-1,23.76,0,35.64-.38a18.39,18.39,0,0,1,15.08,3.83c.36,3,2,6.16-1.27,8.61l-.06,0c-1-4.44-4.07-4.93-8.07-4.88-12.75.18-25.51.1-38.26.06C138.87,86.94,136.78,87.34,135.2,85.68Z"/><path class="cls-45" d="M178.18,79.08a2.75,2.75,0,0,1-2.78,1.45c-12.37-.73-25.79,1.41-37.66-.81.23-3,.47-6.08.7-9.12C145,74.91,162,72,170.37,72.21,174.31,73,176.26,76,178.18,79.08Z"/><path class="cls-107" d="M171.56,73c-10.19,1.64-20.46.36-30.68.8-4.1.16-2.53-7.2-.89-9.09C149.48,70.28,171,57.54,171.56,73Z"/><path class="cls-27" d="M135.2,85.68c15.33,0,30.66,0,46,.11,6.49,0,6-1.11,5.94,6-2.91.24-5.88-.51-8.74.58-1.26.48-1.63-.77-2.35-1.33-2.12-.55-3.7-3.19-6.06-1.44-3.62,1.41-7.76-.6-11.59.6a3.74,3.74,0,0,1-2.1-.47c-2-1.67-4,.45-6.16.3C147,89.16,129,92.46,135.2,85.68Z"/><path class="cls-27" d="M133.89,87.74c4.94,3,11.73-.62,17.26,1.78,1.5,4.34-13.39,1.49-16.24,2.24-1.29,0-2.88.43-3.16-1.61C132.46,89.35,133.17,88.54,133.89,87.74Z"/><path class="cls-108" d="M199.63,153.18c10.84-1.34,21.69-2.67,32.48-4.37,1,11.35,5.07,22.33,5.91,33.7-12.32,2-26,.07-38.72.72-1.58-.19-2.09-1.39-2.52-2.67-2.5-7.19-7-13.58-11.75-19.48-1.08-1.78-4.06-2.57-2.88-5.53A44.38,44.38,0,0,1,199.63,153.18Z"/><path class="cls-109" d="M197.53,180.23a40.24,40.24,0,0,1,3.73,9c-7.22,1.46-14.57,1.57-21.89,1.94-3.08-.59-2.77-3.7-4.11-5.59a3.37,3.37,0,0,1,2.83-5.36C184.12,180.65,192.41,177.11,197.53,180.23Z"/><path class="cls-8" d="M204.33,197.49,205.8,205c-1.58,1.5-3.65,1.68-5.58,1.7-5.37-.18-10.87,1.68-16.14.74-2.18-3.22-4.78-9.9,1.34-10.43C191.38,197,199.42,193.53,204.33,197.49Z"/><path class="cls-110" d="M203.61,196.73c-7.26.4-14.58.24-21.67,2.25-2.56-1.38-4.39-5.24-3.08-8.1,3.79-1.75,7.95-1.14,11.88-1.44,3.44-.25,7-1.55,10.52-.22A25.45,25.45,0,0,1,203.61,196.73Z"/><path class="cls-111" d="M187.15,103.77a.45.45,0,0,1,0,.46c2.2,4.63-2.08,7.61-6.4,6.73-8.57,0-17.15.21-25.71,0-11.57-.34-23.07,1.1-34.62.81-5.25.68-10.24-1.6-11.06-7.21C134.92,102.44,161.31,104.41,187.15,103.77Z"/><path class="cls-15" d="M114.47,111.33c23.57-2.92,48-1,71.83-1.57,2.89,4.12-2,8-6,7.19-18.21-1-37.58,2.06-55.23-1.19C123.74,112.34,116.94,115,114.47,111.33Z"/><path class="cls-37" d="M125.1,122.55c-.07-.26-.13-.53-.2-.79l.21-.75c1.31-1.23,3-1.19,4.57-1.19,17.92.45,36.16-1,53.95.57,2.63,3.36-1.2,8.47-5.71,7.77-15.31-.33-30.6.46-45.89.8C128,128.85,126.29,127.3,125.1,122.55Z"/><path class="cls-112" d="M184.05,121H125.11v-5.25c20-.67,40.69,1.34,60.44-.75C186.55,117.39,186.42,119.48,184.05,121Z"/><path class="cls-113" d="M167.78,65.38c-2.58,1.43-29.11,3.91-27.79-.67,4.54-11.25,17.35-8.22,26.91-8.12C166.77,59.61,169.73,62.25,167.78,65.38Z"/><path class="cls-114" d="M23.26,111.35c.88,2.69,2.18,5.25,2.32,8.15-4.62,5.86-6.63-3.59-11.35-2.09-1.76.5-3.14,1.45-3,3.61C2.94,129.6,7.74,95.05,23.26,111.35Z"/><path class="cls-115" d="M24.73,136.74v1.49c-2.85,4.58-4.37,12-10.74,12.76-8.34,1.1-9.28-6.11-9.17-14.37,2.8,7,10.9,10.08,14.18,1.64.56-1.5.05-3.27,1.3-4.52C21.58,135,23.55,135.3,24.73,136.74Z"/><path class="cls-116" d="M24.73,136.74c-8.54-1-1.64-6.61-5.13-16.48,2-.1,4.1.4,6-.76C27.78,125.32,25.13,131,24.73,136.74Z"/><path class="cls-117" d="M7.57,118c-.1,2.65,0,5,3.71,3-.41,16.31-4.89,5.75-4.43-3Z"/><path class="cls-115" d="M20.35,124a8.81,8.81,0,0,1,0,7.46Z"/><path class="cls-115" d="M66.73,143.47c1.14,1.09.5,2.51.7,3.78,1.15,1.32.43,7-.78,8.23-10.84.27-21.63-.11-32.44-.72-1.4,0-2.76,0-3.45-1.55q1.5-5.61,3-11.23C44.73,142.84,55.8,142.8,66.73,143.47Z"/><path class="cls-118" d="M66.73,143.47c-9.55,2.67-20.46-.78-30.48,0-4.65.28-1.83-6.95-1.73-9.74,9.86-3.55,21.14,1,31.45-.79C67.45,136.38,66.4,140,66.73,143.47Z"/><path class="cls-119" d="M54,188.49c-.37-2,.67-4.17-.76-6,0-7.5,0-7.75-7.34-7.36-5.78.3-11.54.81-17.33.58l.06-6.68C44.44,166,62,167.52,78.34,167.05c7.52-.41,5.65,2.15,6.11,7.55-.93,5-7,8.21-9.75,12.6-1.29,1.58-2.57,3.47-5.14,3C64.5,188.44,58.68,191.1,54,188.49Z"/><path class="cls-10" d="M184.82,207.44c6.48-2.7,14-1.36,21-2.46,1.59,3.51,1.49,7.5,2.21,11.25-7,.2-14.49,1.72-21.23,1.28C185.82,214.21,183.63,211.15,184.82,207.44Z"/><path class="cls-20" d="M83.89,168.24c-18.43-.52-36.84.78-55.26.76-.78-3.62.78-4.31,4.28-4.67,10.55-1.08,21-3.32,31.66-2.82,3.32.15,1.73-4,2.08-6h.1c.61-2.68.39-5.49.68-8.24,7.19.51,14.31-.73,21.48-.75,6.64-.72,3.61,12.21,2.51,15.93C89.19,164.72,86.19,166,83.89,168.24Z"/><path class="cls-9" d="M74.9,264.19c-3.55,3.05-6.11,7.84-10.32,9.8-8.49-7.94-16.28-16.63-25-24.37-5-3.36,8.38-14.05,10.54-17.77,4.17,1,8.17,10,11.79,13.27C64.43,250.08,75.77,259.7,74.9,264.19Z"/><path class="cls-120" d="M52.51,234.21a71.82,71.82,0,0,1-9.76-12.88c1.48-.43,1.86-2,3-2.82,12.88,1.34,26.68-1.48,39.12,1.35,1.13,4.49,3.11,15.79-4.16,14.76C71.37,234.29,61.67,235.61,52.51,234.21Z"/><path class="cls-121" d="M146,350.43c9.69-3.57,18-9.92,27.67-13.5,0,1.5,0,3,0,4.5-9.52,3.88-18.09,9.65-27.66,13.49Z"/><path class="cls-122" d="M211,87.43a21.22,21.22,0,0,1-4.51-5.17c2-10.85.44-22.2.77-33.23-.07-2.93.73-4.26,3.75-3.67Q211.05,66.41,211,87.43Z"/><path class="cls-123" d="M54,188.49c5.3.73,11.91-1.72,16.44,1.47-.11,2.92-2.29,4.54-4,6.44-3.58,3-7.51,10.65-11.62,11.63C52.81,201.75,54.48,195,54,188.49Z"/><path class="cls-65" d="M54.8,208l2-1.78c9.18,1.76,18.94-1,27.85,1.45,1.44,3.36,1.86,9.36-.16,12.25-12.71-1-26.66,2.21-38.76-1.44C48.72,215,51.56,211.32,54.8,208Z"/><path class="cls-124" d="M38.21,246.91c3.68,3.86,8,7.09,11.19,11.45-1.74,3.58-12.8,1.27-16.66,1.65C24.91,260.07,35.84,248.89,38.21,246.91Z"/><path class="cls-125" d="M150.41,91l.74-1.52c1.61-.9,3.55-1.75,5.32-.67a1.44,1.44,0,0,0,1.35.77c1.72.88,2.43,3.72.81,5C154.57,99.51,148.89,96.23,150.41,91Z"/><path class="cls-126" d="M173.65,88.68,176,91C175.86,106.38,157.65,87.69,173.65,88.68Z"/><path class="cls-43" d="M150.41,91c.49,3.46-.2,6-4.17,5.22q-19.17,0-38.35,0c12-2,25.41-.14,37.9-.69,2.81,0,4.35-.73,4-3.79C150,91.52,150.19,91.28,150.41,91Z"/><path class="cls-43" d="M167.64,93.27c-.17,3.77-6.29,4.12-9,1.36.06-.71.12-1.41.19-2.11C161.84,91.77,164.81,91.71,167.64,93.27Z"/><path class="cls-127" d="M78.76,317.3c2.52,2.42,5.2,5.58,5,9.28-1.33,11,1.74,23.08-1.4,33.59H77.92C78.62,346,76.52,331.18,78.76,317.3Z"/><path class="cls-128" d="M187.27,217.69l.54.07c5.56,21.26,1,13.15-20.25,14.68-18.79,0-37.57,0-56.36,0-2.58,0-5.5.25-5.86-3.56-.83-5.77.37-11.31,7.47-10,11.2-.77,23.1,1.55,33.95-1.05,1-.64,2.52,1,3.21-.83,7.42-.91,14.86-.23,22.29-.41C177.17,216.94,182.79,215.33,187.27,217.69Z"/><path class="cls-129" d="M59.23,267.93c1.55,1.24,3.33,2.27,3.78,4.44-10.84,2.26-24.3.26-35.79.74-2.82-.06-6.07.48-8.39-2.09l3-3.77C34.29,267.94,46.77,267.25,59.23,267.93Z"/><path class="cls-130" d="M30,257.24c.4,3.34,16.21,1.51,19.45,1.12A13.81,13.81,0,0,1,54,262.72c-1,5.85-20.54,1.1-25.6,1.68-4.66,0-.86-5.44.91-7.15A1.38,1.38,0,0,0,30,257.24Z"/><path class="cls-131" d="M106.27,228.05c-.21,2.35.73,3.23,3.21,3.22,26.73-.77,54.35,1.29,80.65-.77,1.32,1.23.3,3.2,1.44,4.49l.78,9c-29.58-.67-59.49,1.32-88.92-.75a32,32,0,0,1,.75-9.87C105.08,231.66,103.75,229.09,106.27,228.05Z"/><path class="cls-106" d="M26.25,261.86c.17,1.51,1.25,1.64,2.44,1.6,7.14-1,19.75,3.43,25.28-.74a24.29,24.29,0,0,1,5.26,5.21,3.79,3.79,0,0,1-3.63,1.48c-10.86-2.63-23.8,1.94-33.77-2.16A27.61,27.61,0,0,1,26.25,261.86Z"/><path class="cls-132" d="M82.41,360.17c.46-12.25-1-24.7.79-36.83,7.89,9,2.81,23.12,4,34.13a4,4,0,0,1-1.08,2.7Z"/><path class="cls-133" d="M86.15,360.17c.5-10.22-1.06-20.74.78-30.8,5.59,8.17,2,18.07,3.06,27.16C90,359.57,89,360.6,86.15,360.17Z"/><path class="cls-134" d="M74.9,264.19a3,3,0,0,0,.08-.67c2.58-3.32,5.47-6.26,9.55-7.73a39.72,39.72,0,0,0,.87,8.42A15.89,15.89,0,0,1,74.9,264.19Z"/><path class="cls-135" d="M84.53,255.79,75,263.52l-13.63-18c7-2.35,15.61-1.48,23.09-.41C85.86,248.48,84.42,252.23,84.53,255.79Z"/><path class="cls-61" d="M84.79,250.69c-.07-6.05-2.33-11.64.48-17.38,5.93-2,12.11-1.64,18.22-1.92,3.49.05.48,7.47,0,9.61-3.92,1.45-19.34-.79-18.16,4.65C85.42,247.32,86,249.13,84.79,250.69Z"/><path class="cls-9" d="M167.78,65.38c.09-2.72-1.25-5.3-.75-8.06,1.56,3,2.62,6.43,5.91,8.21a43.05,43.05,0,0,1,9,3,17.86,17.86,0,0,1,6.81.8q-.43,6.71-.86,13.41C178.28,81.43,171.14,74.07,167.78,65.38Z"/><path class="cls-136" d="M181.92,68.52c-2.69.39-5.83-.54-5.61-3.82.47-6.31-1.53-13.62,1.12-19.41,3.47-.59,4.75.69,4.57,4.36C181.7,55.93,181.92,62.23,181.92,68.52Z"/><path class="cls-137" d="M177.43,45.29V67.78a8.23,8.23,0,0,1-4.49-2.25c1.55-6.69.4-13.48.74-20.21Z"/><path class="cls-138" d="M92.14,127c10.8,2,22.2-1,32.74,2.25,2.7,3.58.92,8.49,1.32,12.67-.88,4.25,2.22,18.45-2,19.67-2.22-4.7-.62-10.09-1-15.11-.17-6.64-.17-6.67-6.77-7.49-6.06-.75-12.16-.17-18.24-.38C91.28,140,92.38,131.69,92.14,127Z"/><path class="cls-139" d="M124.3,153.25v8.08c-4.92,3.67-12.55,2.68-18.48,4.31-4.54-4.5-9.83-2.29-15.12-2.71.54-4.71,1.75-9.35,1.45-14.14l.72-.08C96.3,154.46,118.68,149.81,124.3,153.25Z"/><path class="cls-140" d="M92.91,136.76c9,2,18.82-.09,28.11,1.39,5.08,0,2.79,5.12,3.28,8.36-2.69,1.93-5.79,1.36-8.65,1-7.46-1.57-15.79,1.1-22.75-1.79C92.9,142.75,92.9,139.76,92.91,136.76Z"/><path class="cls-138" d="M66,133c-.29,3.91-26-.59-31.45.79l-.69-10.48c.73,2.2,1.92,3.19,4.54,3.06,8.94-.45,17.86,1.23,26.82.67C66.3,128.89,65.87,131,66,133Z"/><path class="cls-115" d="M92.9,145.75c10.48-.52,20.92.77,31.4.76v6.74c-9.54.55-19-1.11-28.55-.7C91.27,152.71,93.29,148.38,92.9,145.75Z"/><path class="cls-9" d="M125.15,142.2c-.13-6.55-.4-13.1-.05-19.65,3.21,6.93,12,8.29,18.43,11.4a91.5,91.5,0,0,0,15.12,4.58c1.27.24,2.76.26,3.38,1.81-1.66,6.79.45,13.3,1.31,19.77C153.38,163.16,131,150.5,125.15,142.2Z"/><path class="cls-141" d="M167.64,93.27c-3-.07-6,.36-8.82-.75-.34-1-.67-1.94-1-2.9,3.6-1.52,7.21-1,10.82,0Z"/><path class="cls-141" d="M173.65,88.68H170A2.64,2.64,0,0,1,173.65,88.68Z"/><path class="cls-141" d="M156.47,88.85l-3.69-.16C154.05,87.73,155.29,87.6,156.47,88.85Z"/><path class="cls-142" d="M163.23,159.24c-3.46-6.08-3.59-12.46-1.65-19,5.51-1.35,11.44-.76,15.2-6.16,1.77-1.52,2.31-4.46,5.27-4.64,5.84,1,12.46-1.28,17.83,1.33,1.72,7.49.82,15-.25,22.42-5.83,1.21-12,1.47-17.64,3.09C172.13,153,171.64,151.45,163.23,159.24Z"/><path class="cls-105" d="M199.88,130.76c-6.24-.49-12.95,1.07-18.93-.82-.64-1.28.16-2.1.92-2.93,3.71-7,4.1-15.08,5.27-22.78A45.17,45.17,0,0,1,199.88,130.76Z"/><path class="cls-143" d="M197.53,180.23c-5.65.25-18.05-.38-22.36,2.31-13.47-15.16,3.59-12.31,14.23-13.6C194.33,169.27,195.73,176.37,197.53,180.23Z"/><path class="cls-144" d="M192.19,169.75c-6.18,1.4-16.9-.64-21.52,3.05-3.14-1.64-4.34-5.5-5.21-8.48,1.75-5.46,15.31-4.38,20.26-3.59A36.75,36.75,0,0,1,192.19,169.75Z"/><path class="cls-3" d="M185.72,160.73c-4,1.4-20.16-.84-19.49,4.43C156,158.9,174.56,142.91,185.72,160.73Z"/><path class="cls-145" d="M178.86,190.88c.37,2,.55,4.07,1.8,5.79-6.17,3-14,.24-20.78,1.85-8.83,2-7.1-8.52-4-13.41.69-.84,1.42-1.63,2.68-1.26,4.12,1,8.31.35,12.47.52C176.26,183.63,176.92,187.2,178.86,190.88Z"/><path class="cls-146" d="M176,185.48c-4.34-.83-25.75,3.23-15.27-5.65,3-2.19,4.37-5.92,4.89-9.42.58-1.45-.71-3.17.66-4.5C170.63,171.61,173.74,178.61,176,185.48Z"/><path class="cls-65" d="M187.27,217.69l-38.22,0a19.41,19.41,0,0,1,2.15-12.89c10.64,3.53,23.13-1.27,33.62,2.61Q186,212.56,187.27,217.69Z"/><path class="cls-24" d="M184.22,207.21l-29,0c-1.62,0-3.42.29-3.25-2.27-1.55-2.2-.12-4.39,0-6.58.78-1.28-.1-3.51,2.22-3.91-.18,2.6,1.38,3.3,3.53,3,7.61-1.08,15.27-.55,22.9-.79A39.72,39.72,0,0,1,184.22,207.21Z"/><path class="cls-147" d="M181.87,127c-2.17,12.62-17.13,6.76-26.28,7.87-8.73.93-17.66-.5-24.59-6.29C147.24,125.67,165.1,127.59,181.87,127Z"/><path class="cls-102" d="M67.43,149.47c-.28,2,.71,4.15-.69,6C67,153.48,66.06,151.35,67.43,149.47Z"/><path class="cls-144" d="M90.7,162.93c5.08-1,11.8-3.63,14.83,2.31,2.06,2,2.23,4.38,1,6.92-6.72,3.27-15.28,1.75-22.68,2.84C81.33,169.93,85.4,163.7,90.7,162.93Z"/><path class="cls-145" d="M65.91,195.92c4.39-6.14,10-11.22,14.84-17,.9-.91,1.34-2.48,3.06-2.32,2.68,4.58.61,10.7,1.15,15.86-.29,4.77-.82,5.32-5.52,5.42C76.09,197.36,67,199.71,65.91,195.92Z"/><path class="cls-25" d="M84,181a54.42,54.42,0,0,1-.09-6c5.67-3.27,15.51-1.1,22.33-3,1.84,3,2.53,6.23,1.1,9.65C99.64,178.78,91.45,183,84,181Z"/><path class="cls-148" d="M85.39,233.47l-.72,12-23.32,0a96.37,96.37,0,0,1-8.84-11.29c9.49-1.74,19.29-.42,28.91-.7,6.4.33,1.66-11.17,3.34-15.24C87.55,218.16,87,231.73,85.39,233.47Z"/><path class="cls-24" d="M65.91,195.92c5.53,1.75,11.2.77,16.77.55,2.24-.08.76-2.94,1.33-4.44,2.76-.39,2.26,14.4.58,15.95-5.62-.93-25.46,2.14-27.75-1.73C59.43,202.43,62.78,199.27,65.91,195.92Z"/><path class="cls-72" d="M84.59,208l.09-11.25c5.26-2.76,11.71-1.54,17.47-2.48,6.69-1.71,6.81,5.16,5.37,9.82-4,2.2-8.66,1.27-12.94,2-7.93.22-7.93.22-8.1,8,0,1.62.22,3.3-1.18,4.55-.18-.13-.37-.26-.54-.41C84.7,214.84,84.65,211.41,84.59,208Z"/><path class="cls-149" d="M147.52,217.69c.13,2.9-2,2.27-3.62,2.27q-18.39,0-36.79,0c-1.84-3.1-1.47-7.45-.24-10.61,5.68-1.81,12.6-1.5,18.55-.07,2.07,1.82,1,6.37,4.81,6.13,6.45-2.37-1.9-9.5,15.69-6.45A7.34,7.34,0,0,1,147.52,217.69Z"/><path class="cls-150" d="M85.39,233.47q0-5.25,0-10.5c4.28-2.05,9-1.22,13.46-1.76,2.46-.3,5.15-1.06,7.63.29a38.75,38.75,0,0,1-1.55,12.12C104.44,230.13,89.26,234.54,85.39,233.47Z"/><path class="cls-151" d="M106.46,221.5A140.35,140.35,0,0,1,85.37,223c-.1-3,0-6,.13-9,4.28-2.16,9-1,13.49-1.76a16.54,16.54,0,0,1,8.11.25C106.85,215.47,107.76,218.73,106.46,221.5Z"/><path class="cls-152" d="M147.52,217.69c.8-4.39-3.1-8.21-2-12.26,1.79-1.92,3.72-1.9,5.77-.44q-1.12,6.38-2.24,12.73C148.5,220.14,148,217.41,147.52,217.69Z"/><path class="cls-108" d="M107,181.71c-.64-5.48-.31-11.07-1.43-16.47,6-2.39,12.6-2.18,18.77-3.91a1.65,1.65,0,0,0,.7,0c1.42,1.15.89,3.23,1.07,4.83.53,4.25,3.59,7.77,6.42,10.8,1.28,1.89,4.77,2.49,3.44,5.91C134,184.79,105,186.22,107,181.71Z"/><path class="cls-113" d="M125.06,163c-.13-6.93.09-13.87.09-20.81,10.26,8.86,22.33,15.66,35.78,17.93,0,1.87-1.45,2.27-2.81,2.35C147.24,162.62,135.66,164.66,125.06,163Z"/><path class="cls-153" d="M143,134.52c11.36-.93,23.45-1.74,34.57.06C169,145.61,153.54,138.72,143,134.52Z"/><path class="cls-107" d="M125.06,163c10.91-1.33,22.05-1,33-1.51a2.65,2.65,0,0,0,2.83-1.37l2.23-.12a8.7,8.7,0,0,1,2.36,4.5c-1.24,1.76-3.14,1.82-5,1.88-11.66-.46-24.19,2.51-35.44.37Z"/><path class="cls-154" d="M125.07,166.75c13.43-1.47,27.16-.4,40.45-2.25l.71.66c-.63,1.82,2.24,5.25-1.09,5.62-12.59-.51-25.34,1.91-37.85.47A8.28,8.28,0,0,1,125.07,166.75Z"/><path class="cls-43" d="M161,180.28a52.22,52.22,0,0,1-4.54,5.19c-4.7.4-9.48-.29-14.12,1-2.52-1.34-5.1-2.61-5.59-5.88C137.37,178.21,161.9,176.64,161,180.28Z"/><path class="cls-48" d="M142.26,186.25c2.72-3.34,8.53-.52,12.39-1.91.52-.09,1.21.73,1.82,1.13q-1.09,3-2.21,6C150.3,192,138.5,193.33,142.26,186.25Z"/><path class="cls-155" d="M143,190.74c3.73.44,7.59-.94,11.24.77l0,3c-1.37.92-.11,2.85-1.46,3.78C147,199.51,139.84,198.31,143,190.74Z"/><path class="cls-156" d="M127.29,171.25c.42-.23.85-.69,1.26-.68,12.45.89,25.55-2.59,37.67-.06,1.66,9.51-27.83,3.44-34.42,6.72A13.24,13.24,0,0,1,127.29,171.25Z"/><path class="cls-141" d="M131.8,177.23c1.12-2.36,3.5-2.23,5.38-2.15,9.45.36,18.85-1,28.29-.84-1.17,2.26-1.42,5.18-4.46,6-2.7-1.26-23.83-1.49-24,1.44C135.06,181.77,133.52,178.4,131.8,177.23Z"/><path class="cls-63" d="M144.47,197.5c2.75.38,5.66-.89,8.3.76q-.39,3.36-.79,6.7c-2,.4-4.19-.78-6,.8C143.52,203.67,143,201,144.47,197.5Z"/><path class="cls-143" d="M107,181.71c.8,2,1.8,4,.41,6.1-7.31,3.3-16.4-.64-22.82,4.64A5.56,5.56,0,0,1,84,192c0-3.68,0-7.36,0-11C89.64,181.24,103.87,176.54,107,181.71Z"/><path class="cls-109" d="M84.55,192.45c-1.32-5.72,18.39-3.77,22.56-4.71,2.63,2.64,2.74,18.6.64,21.7l-.53.27c-1.62-1.77-1.42-3.6-.2-5.46-.09-5,1.6-10.87-5.79-9-5.49.7-11,1-16.55,1.44C84.63,195.31,84.59,193.88,84.55,192.45Z"/><path class="cls-87" d="M107,204.25a80.67,80.67,0,0,1,.08,8.23A133.48,133.48,0,0,1,85.5,214c-.35-9-.35-9,8.61-9C98.43,205,102.68,203.73,107,204.25Z"/><path class="cls-157" d="M107.75,209.44l.12-12c4.23-2.5,9.59-.07,14.2-1.73,2.51.45,3,8.22,7.73,2.16.52-.79.54-2,1.82-2.16,3.94,1.45,8.58-.55,12.15,1.73l.7,0c-.34,4.18,2,7.83,1.48,12-4,.36-8.07-.81-12,.77a10.47,10.47,0,0,0-8.13,0C119.91,208.55,113.78,209.89,107.75,209.44Z"/><path class="cls-158" d="M125.84,210.23c2.72-2.61,5.43-3.07,8.13,0C135.81,218.79,124.39,218.54,125.84,210.23Z"/><path class="cls-159" d="M122.7,196c-3.72,3.3-10.14.71-14.83,1.5-.38-5-.94-10-.64-15,1.71,1.12,3.63.78,5.46.7,8.08-.39,16.64,1.28,24.34-1.49,1.95,1.27,4,2.48,5.23,4.53,0,3.76,1.45,7.38,1.51,11.23-3.06,0-6.12-.08-9.18,0C130.18,197.06,127.26,191.09,122.7,196Z"/><path class="cls-158" d="M122.7,196c2.31-4.28,5.58-4.28,8.41,0C131.78,202.87,121.87,202.91,122.7,196Z"/></g></g></svg>