<svg xmlns="http://www.w3.org/2000/svg" viewBox="0 0 384 384"><defs><style>.cls-1{fill:#82e0ef;}.cls-2{fill:#fefefe;}.cls-3{fill:#57a96b;}.cls-4{fill:#cae47f;}.cls-5{fill:#775449;}.cls-6{fill:#f8d788;}.cls-7{fill:#010101;}.cls-8{fill:#9ac86a;}.cls-9{fill:#886e63;}.cls-10{fill:#317b36;}.cls-11{fill:#317a36;}.cls-12{fill:#f5b16e;}.cls-13{fill:#f3b06d;}.cls-14{fill:#f4d486;}.cls-15{fill:#efad6b;}.cls-16{fill:#fed571;}</style></defs><g id="Livello_2" data-name="Livello 2"><g id="Livello_1-2" data-name="Livello 1"><path class="cls-1" d="M.07,69.8C.07,47.7.13,25.61,0,3.51,0,.8.45,0,3.38,0Q193.22.14,383.06.08c.83,8.15.13,16.32.37,24.46-.06,1.95-1.69,2.29-3,2.85-17.62,7.4-26.66,21-28.46,39.73-.47,4.86-.92,5.21-5.52,3.28a48.48,48.48,0,0,0-23.1-3.25c-16,1.29-27.58,16.75-24.68,32.68.72,4,.47,4.25-3.68,4-1.87-.1-3.74-.08-5.61-.07-8.36,0-13.23,3.83-15.12,12.1-.63,2.75-1.9,3.32-4.47,2.94-10.21-1.53-15.83,1.41-20.48,10.83-1.27,2.57-2.67,3.34-5.25,2-7.67-3.92-15.54-4-23.57-1.13-1.34.47-2.91,1.62-4.2.46s-.54-3-.18-4.6c1.28-5.58,3-11.07,1.47-17-2.24-8.82-8.51-12.7-17.11-9.94-2.94.94-3.79-.42-4.56-2.68a53.34,53.34,0,0,0-8.56-16.53c-4.46-5.54-10.41-8.16-17.25-8.52C161.44,71.32,155,77.86,154.42,87c-.15,2.44,1,5.52-1,7.17s-4.38-.73-6.62-1.21c-11.81-2.5-21.9,7.34-19.47,19.14a23,23,0,0,0,.63,2.54c1.49,4.71,1.42,4.84-3.65,4.18-3.59-.47-7.12-.91-10.73.07-5.29,1.43-9.75,3.85-12,9.16-.8,1.87-2.06,2.82-4.09,2.38a10.33,10.33,0,0,0-8.77,2.18c-2.14,1.62-3.71,1.4-5.11-1.08-3.59-6.32-9.06-8.73-16.12-7-2.77.68-3.71-.18-4.18-2.93-1.5-8.88-5.92-12.8-14.78-13.53-4.65-.38-4.91-1-2.36-5.14,4-6.62,8-13.25,9.35-21.09a29.56,29.56,0,0,0-2.68-18.59c-4.6-9.16-14.41-12.89-25.2-9.7A59,59,0,0,0,4.34,67.28C3.12,68.41,2.21,70.18.07,69.8Z"/><path class="cls-2" d="M383,25.66q0-12.78.1-25.58c1.55.67.7,2,.7,3,.07,15.74.05,31.49.05,47.23q0,165.12-.05,330.24c0,1.1.87,2.55-.7,3.38a5.83,5.83,0,0,1-1.17-4.22c0-9.48-.17-19,.09-28.44a31.92,31.92,0,0,1,0-3.66c-.26-23.23-.08-46.46-.1-69.69,0-11.73-.18-23.47.1-35.21,0-1.2-.08-2.4,0-3.6-.12-6.37-.15-12.73,0-19.09-.05-1.18-.05-2.36,0-3.53-.16-11.21-.12-22.41,0-33.6.49-2.67-.56-4.38-2.9-5.84-24.61-15.41-49.6-30.21-74.49-45.16-5.32-3.2-9.67-2.65-14.83.53-27.38,16.86-54.71,33.82-82.92,49.27-13,7.13-26.11,14.05-39.59,20.27-2.86,1.32-5,1.17-7.56-.68q-35.58-26.1-71.41-51.87c-.2-.14-.4-.3-.6-.45-6.78-4.92-9.11-5-16.12-.29-21.75,14.6-44.22,28-67,40.9-1.33.75-2.66,2.07-4.44.93V74.3c8.63-11.93,20.2-19.24,34.78-21,8-1,15.55,5.12,18.52,13.64,2.88,8.25,1.74,16.23-1.8,24a90.83,90.83,0,0,1-8,13.92c-.91,1.32-2.06,2.52-2.52,4.76,5.88-.64,11.87-1.65,16.6,2.72s5.86,9.68,3.71,15.68c1.43.62,2-.46,2.77-.91,7.56-4.49,15.71-1.86,19.22,6.25,1.58,3.66,1.58,3.66,4.44,1.29,5.12-4.24,7.16-4.45,13.42-1.15.71-5.48,3.42-9.59,8.32-12a19.52,19.52,0,0,1,12.3-2c3.54.59,7,1.52,10.74,1.86.38-1.66-.92-2.34-1.54-3.27-4.28-6.36-4.07-13.72.61-19.07,4.86-5.56,12.15-6.9,19-3.5.68.33,1.33.7,2,1.08,1.86,1.09,2.78.56,2.8-1.61,0-1.87,0-3.75,0-5.62-.12-6.13,1.54-11.47,7.2-14.63,6.06-3.37,12.14-2.32,17.78,1s9.25,8.64,11.89,14.56a88.54,88.54,0,0,1,3.57,9.86c.7,2.23,1.62,2.63,3.76,1.28,6.17-3.88,12.67-1.78,15.73,4.87A19.3,19.3,0,0,1,217,117.63a126.44,126.44,0,0,1-3.19,13.86c-.26.94-.74,2.15,0,2.86s1.82-.19,2.65-.65c9.58-5.28,19.2-5.68,28.81-.13,2,1.18,3.65,1.87,4.32-1.29,2.32-11,14.85-16.87,24.59-10.51a1.47,1.47,0,0,0,1.68-.07c-.5-2.41-1.1-5-.33-7.56a13.37,13.37,0,0,1,12-9.26c3.85-.2,7.72-.36,11.52.71,1.81.51,2.94.39,2.14-2.11C295.23,84.89,307.45,68.3,326.93,68A48.93,48.93,0,0,1,350,73.11c2.83,1.41,3.6.94,3.32-1.84-1.71-17.48,9.8-35,23.78-41.21C379.4,29.05,381.74,28.09,383,25.66Z"/><path class="cls-3" d="M.07,298.46V219.74c1.23-1.13,2.76-1,4.25-1,14.83,0,29.68-.51,44.48.15,13.67.6,27.23,2.95,40.71,5.42C113,228.59,135.94,234.7,158,244a214.85,214.85,0,0,1,52.52,31.25c1.53,1.25,4.2,2.26,3.58,4.75-.53,2.14-3.14,2.2-5,2.77-14.38,4.54-28.73,9.15-43,14.14-17.87,6.26-35.75,12.55-53.19,20-7.16,3-14,.61-20.86-.64-1.77-.32-2.13-2.27-2.65-3.81a425.15,425.15,0,0,1-12.17-44.8C75.14,258,72.6,248.46,69.8,239a20.51,20.51,0,0,0-2.58-5.79c-2.3-3.39-5.44-3.15-7.07.66-1.22,2.86-2.08,5.86-3.27,8.76-8,19.52-16.05,39-21.72,59.4-1.28,4.61-2.4,5.23-7,4.38a242.7,242.7,0,0,1-24.37-5.72C2.37,300.27.84,300,.07,298.46Z"/><path d="M.07,298.46a282.94,282.94,0,0,0,30.07,7.38c1.92.38,3,0,3.52-2.08,6-22.08,14.68-43.18,23.39-64.28.9-2.18,1.33-4.57,2.36-6.68,2.11-4.35,6.09-4.55,8.58-.4,3.32,5.53,4.44,11.89,6.1,18,4.55,16.71,7.56,33.82,12.69,50.39,1.29,4.17,2.63,8.32,3.91,12.49.43,1.42,1,2.33,2.75,2.49a98,98,0,0,1,10.34,1.52,12.83,12.83,0,0,0,7.62-.95c30.88-12.7,62.42-23.5,94.22-33.59,2.7-.86,5.4-1.75,8.61-2.8a97,97,0,0,0-12.32-10.09c-26.88-19.65-57.12-31.72-89.21-39.58A410.71,410.71,0,0,0,55,220.48c-18.27-1.78-36.6-.36-54.9-.74v-3c1.47-1.31,3.29-1,5-1,13.7,0,27.4-.12,41.1.05,3.75,0,6.27-1.43,8.66-4.14,5.7-6.47,8.05-14.21,9.3-22.49a194.48,194.48,0,0,1,5.41-26.39,52.58,52.58,0,0,1,4.72-12c-9.31,5.86-18,11.6-26.83,17.08Q26.31,180.94,4.58,193c-1.36.76-2.72,1.86-4.51,1.22V190.5c3.43-.84,6.21-3,9.2-4.7Q40.61,168,70.67,148.17c8.27-5.48,10-5.42,18,.34q35.85,26,71.64,52.05c2.16,1.58,3.72,1.87,6.26.69,34-15.85,66.09-35.06,98.06-54.52,9-5.49,18.13-10.88,27.08-16.52,3.93-2.48,7.46-2.5,11.46-.14q39.08,23,77.59,46.91c1.88,1.16,2.68,2.4,2.25,4.5-1.8,1.15-3.09-.2-4.38-1-24.18-15.22-48.69-29.87-73.26-44.43-6.35-3.76-7.08-3.35-7.3,4a112.67,112.67,0,0,0,.75,14.58c.82,8.09-2.81,14-9.26,18.37-2.68,1.83-5.26,3.81-8,5.58-7.5,4.92-11.1,11.87-11.19,20.8-.05,4.74.41,9.5-.46,14.21-.33,1.84.78,2.13,2.18,2.14,2.62,0,5.24,0,7.86,0,8.85,0,17.7-.05,26.55,0,2.75,0,4.41-1,5.37-3.63,1.89-5.16,4.34-10.1,6.06-15.33.88-2.69,2.08-5.3,5.37-5.5,3.5-.21,5,2.48,6.15,5.15,2,4.58,3.2,9.46,4.52,14.27,1.37,5,1.33,5,6.63,5,12.47,0,24.93,0,37.4,0,1.7,0,3.53-.35,5,1.07,0,1,0,1.92,0,2.88-1.54,1.49-3.49,1.13-5.32,1.13-12.2,0-24.4,0-36.6,0-4.11,0-4.44.39-3.52,4.3,1.36,5.71,2.52,11.46,4.06,17.12,1.15,4.19,1.58,4.46,5.72,3.51,10.19-2.35,20.42-4.55,30.66-6.67,1.64-.35,3.38-1.14,5,.16v2.92c-1.12,1.37-2.75,1.6-4.33,2-9.74,2.16-19.49,4.21-29.21,6.44-5.14,1.17-5.3,1.35-3.54,6.53a74.47,74.47,0,0,1,4.18,17.81,21.05,21.05,0,0,1-1.27,9.2c-2.18,5.77-7,7.62-12.61,5-2.48-1.15-5.82,1.9-5.61,5.28.13,2.11.51,4.22.8,6.32.41,2.87-.95,4.59-3.64,5.18a42.72,42.72,0,0,1-7,1c-4.46.22-6.18-1.29-6.65-5.69-.3-2.91-3.91-11.12-5.66-13.45-.92-1.22-1.79-1.33-3.19-1-5.54,1.21-9.43-1-11.34-6.34-1.26-3.52-1-7.13-.46-10.74.24-1.48.57-2.94.87-4.41s0-2.25-1.67-1.94c-2.82.51-5.61,1.17-8.38,1.9-2,.52-1.91,2-1.47,3.61.9,3.25,2,6.42,2.95,9.67A36.37,36.37,0,0,1,286.84,290c-.34,6.94-3.89,9.84-10.69,8.79-2.57-.4-4.08.84-4.15,3.4a7,7,0,0,0,.11,1.11c.32,2.56,1.53,5.54-1.18,7.26a12.31,12.31,0,0,1-9.76,1.25,4.3,4.3,0,0,1-3.19-5.26c.71-3.9-.92-6.33-3.83-8.48a4.93,4.93,0,0,0-3.3-1.3c-4.65.11-7.11-1.69-8.67-6-1.38-3.85-.55-7.63.21-11.45.62-3.14.43-3.32-2.67-2.44q-43,12.15-85.09,27.27c-12.3,4.45-24.51,9.17-37,13.89,12.25,1.61,24.32,3.3,36.41,4.87q51.13,6.65,102.42,12.1,37.88,4,75.81,7.51c15.62,1.42,31.26,2.55,46.86,4.21,1.34.14,2.77.13,3.81,1.26,0,1,0,1.94,0,2.91a15,15,0,0,1-4.13,3.69c-10.68,7.26-20,15.79-26.32,27.3a9.39,9.39,0,0,1-1.62,2h-3.74c-.65-1.8.52-3.14,1.25-4.51,5.33-10,13.25-17.69,22-24.64,1.44-1.14,3.1-2,4.42-3.64a51.36,51.36,0,0,1-7.58-.61,25.54,25.54,0,0,0-17.12,3.75C338.51,361.2,328.5,369.8,320.82,381a8.81,8.81,0,0,1-2.84,2.92h-3.74c1.06-5.1,4.75-8.58,7.79-12.4,7-8.8,15.69-15.58,25.39-21.16A2.91,2.91,0,0,0,349,349c-3.53-.07-6.92-.51-10.32-.86-6.32-.65-11.2,3-16.14,6-11.83,7.16-22.29,15.91-29.64,27.91a12.87,12.87,0,0,1-1.81,1.88h-3.74c-.64-2.12.81-3.56,1.79-5.06,9.1-14,21.62-24.12,36.21-32-5.56-.49-11.11-.9-16.63-1.55a6.51,6.51,0,0,0-3.6.74c-14.88,6.95-28.47,15.8-40.14,27.46-3.26,3.25-5.48,7.4-9,10.37h-3.74c-.56-2.62,1.4-4.13,2.73-5.81,11.42-14.43,25.77-25.17,42.67-33.71-2.64-.08-4.65-.82-6.77-.77a47.39,47.39,0,0,1-6.3-.67,9,9,0,0,0-5,1.3A260.57,260.57,0,0,0,232.56,374c-3.9,3.08-6.65,7.45-11.07,9.95h-3.74c0-2.95,2.25-4.6,4-6.41,10-10.28,21.93-18,33.92-25.63a197.36,197.36,0,0,1,18-10c-3.25-.7-7-.46-10.7-1.16s-6.85,1.13-10,2.41a189.11,189.11,0,0,0-49.83,29.08c-3.35,2.75-6.88,5.38-9.45,9a11,11,0,0,1-3.53,2.71h-3.74c-.31-2.47,1.52-3.82,2.9-5.32,11.17-12.21,24.71-21.25,39.09-29.12a193.58,193.58,0,0,1,21.23-10.22c-6.26-.41-12.85-1.29-19.44-2.07a10.06,10.06,0,0,0-5.46.76c-22.08,9.89-43.77,20.5-62.79,35.79-4,3.19-7.75,6.64-11.43,10.18h-4.49c-.37-2.13,1.37-3.07,2.49-4.3,8.84-9.68,19.32-17.26,30.55-23.87a334.93,334.93,0,0,1,38.43-19.91c-7.66-.92-14.72-1.72-21.76-2.59-24.48-3-49-6.1-73.39-9.45-8.27-1.13-16.52-2.37-24.8-3.42-3.77-.47-3.81-.43-3.21,3.45a55.89,55.89,0,0,1,.26,10.1,8.2,8.2,0,0,1-.13,1.11c-1.76,10.27-9.54,13.61-17.91,7.69-.76.52-.79,1.65-1.5,2.09-4.51,2.83-4,6.87-2.84,11.15a23.88,23.88,0,0,1,.49,2.95c.42,2.83-.77,4.63-3.5,5.29a36,36,0,0,1-10.74,1.21c-3.45-.23-5-1.57-5.33-5a29.47,29.47,0,0,1,.3-8.59c.33-1.77.09-3.21-1.92-3.86a8.74,8.74,0,0,1-5.69-5.56c-.56-1.51-1.22-1.69-2.79-1.15-6.75,2.34-10.92.35-13.76-6.21-1.93-4.45-1.66-9-.83-13.61a73.46,73.46,0,0,1,1.74-8.05c.76-2.56-.16-3.7-2.71-4.07-7.66-1.13-15.07-3.42-22.58-5.22-1.79-.44-3.73-.71-4.74-2.62Z"/><path class="cls-4" d="M.07,301.46a201.26,201.26,0,0,0,29.32,7.17c2.37.43,2.67,1.16,2.14,3.34-1.59,6.52-3.65,13-2.31,19.9,1.12,5.8,4.79,9.5,9.39,9.53,2.69,0,4.7-1.41,6.91-3,1,4.6,2.56,8.57,8.06,8.85,1.73.09,1,1.43,1,2.26-.1,3.61-.31,7.23-.45,10.84-.12,2.93,1.09,4.32,4.24,4.17a100,100,0,0,0,10.39-1.14c2.43-.38,3.41-1.76,2.88-4.24-.41-1.95-.64-3.94-1-5.9-.57-3-2-6.12,2.46-7.76,1.69-.62,2.14-2.95,2.76-4.74.21,0,.53,0,.61.07,2.3,3.15,5.15,5.18,9.23,4.06s6.25-4.26,7.25-8.26c1.31-5.22.88-10.44-.22-15.59-.5-2.31.25-2.47,2.13-2.21,26.64,3.63,53.27,7.29,79.93,10.81,13.33,1.75,26.7,3.21,40,4.82,1.6.19,3.2.45,5.86.83l-4.62,2.16c-18.79,8.93-37.38,18.23-54,31a85.81,85.81,0,0,0-16.14,15.49q-71.44,0-142.87.07C.5,384,0,383.5,0,380.93.12,354.44.07,328,.07,301.46Z"/><path class="cls-5" d="M.07,194.25c26-13.93,51-29.54,75.83-45.51-7.73,15-9,31.52-12.15,47.55-1.53,7.69-5.84,13.62-11,19.16-1.33,1.42-2.86,1.27-4.45,1.27l-48.22,0Z"/><path d="M383,25.66c.37,1.93,0,3-2.22,3.84-18.24,6.84-28.93,26.83-26.23,43,.15.93.49,2-.44,2.8-1.2,1-2.13-.05-3-.53-9.91-5.2-20.29-7.62-31.37-4.87C306,73.28,297,87.8,300.79,100.15a37.67,37.67,0,0,0,2,4.4c.37.8.76,1.63,0,2.41a1.94,1.94,0,0,1-2.12.22,34.32,34.32,0,0,0-9.53-1.68c-4.34-.1-8.52.53-11.67,3.91s-4.61,7.11-2.43,11.59c.39.82.91,1.6.14,2.38-.92.93-1.82.35-2.66-.24a15.42,15.42,0,0,0-24.4,11.15c-.28,2.8-1.46,2.68-3.42,1.39-10.46-6.9-21-6.86-31.43,0-.84.55-1.64,1.34-2.66.59s-.54-1.74-.31-2.73c1.23-5.21,2.59-10.4,3.55-15.67a17.51,17.51,0,0,0-2.66-13.6,8.81,8.81,0,0,0-14.09-1.06c-2.34,2.5-3.06.87-3.69-1.17-2.14-6.93-4.49-13.74-8.95-19.6A21.14,21.14,0,0,0,172.1,73.9c-8.31-1.18-14.84,3.76-15.61,12.18a104.5,104.5,0,0,0,0,10.47c0,.85.33,1.84-.56,2.39-1.07.66-1.86-.12-2.63-.76a15.1,15.1,0,0,0-9.61-3.57c-6.18-.16-11.35,3-13.59,8.1A15,15,0,0,0,133,119.06c.8.85,2.41,1.44,1.64,3-.92,1.82-2.43.54-3.63.27-5.22-1.18-10.39-2.6-15.85-1.71-7.52,1.22-11.61,5.34-12.56,12.9-.1.78-.13,1.5-.9,1.89s-1.35-.15-1.91-.66c-3.89-3.54-6.34-3.46-10.62,0-1.61,1.29-2.53,4.19-4.74,3.75s-1.27-3.41-2-5.17c-3.34-7.82-12.4-9.83-19.22-4.07-.86.72-1.62,1.88-2.83,1.15-1-.63-.6-1.77-.16-2.7,2.35-5,1.49-9.58-2.07-13.51-3.91-4.33-9-4.87-14.45-3.73a17.58,17.58,0,0,0-2.12.71,1.77,1.77,0,0,1-2.06-.41c-.6-.71-.19-1.42.23-2,1.26-1.85,2.57-3.68,3.83-5.53,4.35-6.43,8.2-13.07,9.86-20.79a27.36,27.36,0,0,0-.48-13.69c-3.38-11.47-12.45-16.56-24-13.39C18.51,58.12,10,64,2.7,71.81,1.88,72.68,1.41,74,.07,74.3V69.8c6.62-6.27,13.61-12,22.18-15.48,4.65-1.88,9.43-3.34,14.5-2.94,11.3.9,19.4,10.16,20.18,22.69.64,10.25-3.46,19-8.66,27.31-1.1,1.77-2.27,3.51-3.5,5.4,13.71.55,18.52,4.84,19.86,17.4,10.75-3,15.55-.9,21.29,9.32,3.62-3.05,7.37-5.73,12.48-3.81,1.09.41,1.42-.31,1.88-1.18,4.78-8.87,11.5-12.27,21.51-11,2.09.27,4.17.57,6.6.91-3.67-8.13-3.95-15.94,2.87-22.25,6.41-5.93,13.94-5.71,22-2,0-2.2-.06-4.11,0-6C153.8,74.88,163.6,68,176.38,71.78c7.17,2.15,11.8,7.1,15.44,13.31,2.66,4.53,4.24,9.51,6,14.42,10-6,20.49.09,21.27,13.83.28,4.94-1.15,9.63-2.26,14.36l-.87,3.69c7.85-3.84,15.53-5.07,23.5-2.54,2.58.82,5.24,3.15,7.47,2.72,1.53-.29,2.14-4.33,3.55-6.42,4.82-7.14,12-9.22,22.18-6.68C275,105,281,101.41,298.22,103.12,295.1,86.46,301.65,73.27,315.75,68c8.88-3.31,17.84-2.8,26.74,0,2.83.87,5.57,2,8.37,3.06C353.24,46,363.64,31.31,383,25.66Z"/><path class="cls-6" d="M150.43,383.93c.94-2.54,3.11-4,4.95-5.79,12.69-12,27.7-20.6,43.05-28.61,7.37-3.85,15-7.18,22.41-11a18.46,18.46,0,0,1,12.1-2.05c6.19,1.08,12.5,1.46,18.79,2.47a264.38,264.38,0,0,0-30.49,15.63c-10.85,6.66-21.27,13.88-30,23.24a29.26,29.26,0,0,0-4.89,6.08Z"/><path class="cls-6" d="M190.07,383.93c9-11.5,20.9-19.45,33.12-27a196.94,196.94,0,0,1,34.53-16.69,7.64,7.64,0,0,1,3.6-.58l15.1,1.62c-5,2.72-9.33,5-13.6,7.45A232.53,232.53,0,0,0,229,372a64.65,64.65,0,0,0-11.23,12Z"/><path class="cls-6" d="M255.9,383.93c5.31-9.11,13.06-15.91,21.24-22.24a151.07,151.07,0,0,1,27.44-16.53,5.86,5.86,0,0,1,2.79-.82c6.56.55,13.1,1.24,20.71,2-17.22,9.53-31.79,20.58-40.77,37.59Z"/><path class="cls-6" d="M221.49,383.93c8.83-10.94,20.47-18.44,32-26a239.49,239.49,0,0,1,27-15.09,6.83,6.83,0,0,1,3.91-.8c5,.58,10.06,1.09,16.06,1.72-2.5,1.39-4.27,2.38-6.05,3.35-15.55,8.5-29.53,18.89-40.08,33.4-.79,1.09-1.43,2.3-2.13,3.46Z"/><path class="cls-6" d="M318,383.93c9.55-15.71,23-26.92,39.73-34.24a5.64,5.64,0,0,1,2.52-.48c5.43.36,10.85.82,17.32,1.32-12.93,9.36-24.06,19.26-30.39,33.4Z"/><path class="cls-6" d="M291.05,383.93c3.38-7.56,9-13.34,15-18.82,6.44-5.95,13.83-10.54,21.37-15A20.82,20.82,0,0,1,342,347.49c3.16.51,6.37.65,10.64,1.06-16.65,8.64-29.21,20.21-38.39,35.38Z"/><path class="cls-4" d="M350.9,383.93c.58-3.44,2.83-6,4.74-8.69,7.28-10.15,16.69-17.95,27.33-24.33l.09,33Z"/><path class="cls-7" d="M218.47,61.29a30.8,30.8,0,0,1,30.61-30.38c17.16.09,31.44,14,31.46,30.57,0,17.47-13.05,31.46-29.37,31.44C233.39,92.91,218.45,78.45,218.47,61.29Z"/><path class="cls-8" d="M383,348c-29.79-2.51-59.58-5-89.31-8.11-26.74-2.83-53.52-5.44-80.23-8.59-28.56-3.36-57.06-7.22-85.58-10.87-4.32-.55-8.64-1.12-13-2a1214.29,1214.29,0,0,1,129.73-44.06c-.66,3.17-1.27,5.91-1.79,8.67-.62,3.27-.53,6.52,1.22,9.45s4.06,4.51,7.48,3.09c1.49-.63,2.45-.9,3,1.07.21.77.9,1.85,1.55,2,4.25.93,3.26,4,3.13,6.89-.24,5.54.4,6.07,5.88,5.58,1-.09,2-.46,2.94-.46,3.2,0,4.36-1.7,3.51-4.57-1.15-3.91-1-7.26,3-9.51,5.67,3.73,10.63,1.31,11.47-5.82.78-6.68-1.4-12.82-3.39-19-2.23-6.95-2.25-6.95,4.77-8.43,2.77-.58,5.54-1.11,8.53-1.71-.65,4.15-1.33,7.9-1.8,11.68a15,15,0,0,0,.74,6.65c2.15,6.3,6.45,7.81,13.34,4.53.87,3.46,2.47,6.3,6.38,6.94,1.81.3,1.08,1.67,1.07,2.66,0,2.86-.23,5.73-.23,8.6,0,2.27,1.15,3.47,3.53,3.25.5-.05,1,0,1.5-.05,12.9-1.45,10.58-.63,8.95-11.22-.27-1.75-.63-3.31,1.6-4.29,1.64-.71,2.32-2.52,3.08-4.4,2.5,2.81,5.32,4.74,9.1,3.06s5.19-5.08,5.69-9c1-7.56-1.3-14.57-3.56-21.59-2.39-7.41-2.43-7.47,5.25-9.18,10.81-2.41,21.64-4.71,32.46-7.06Z"/><path class="cls-9" d="M383,216.8c-15,0-29.91-.13-44.86,0-2.92,0-4-.84-4.68-3.73a93.82,93.82,0,0,0-4.92-16.46c-1-2.27-2-4.89-5.12-4.66s-3.68,2.91-4.59,5.26c-2.24,5.81-4.58,11.58-6.82,17.39a2.79,2.79,0,0,1-3,2.17c-13.45-.07-26.9,0-40.84,0,2-6.75,1.17-13.45,1.41-20.09.3-8.18,4.41-14.09,10.89-18.61,2.56-1.78,5.09-3.6,7.73-5.25,8.18-5.13,10.89-12.5,9.31-21.85a44.45,44.45,0,0,1,.16-16.38c.56-2.79,1.27-3.46,4-1.85q32.37,19,64.37,38.72c5.6,3.43,10.86,7.44,16.93,10.07Z"/><path class="cls-3" d="M383,239.26c-12.13,2.6-24.29,5.08-36.38,7.88-3.33.78-5,.66-5.76-3.24-1.35-7.08-3.12-14.09-5-21.05-.81-3,.23-3.19,2.74-3.18,14.8.09,29.6,0,44.4,0Q383,229.48,383,239.26Z"/><path class="cls-5" d="M295.08,131.91c-1.7,7.87-1.28,14.93-.3,22s-2.18,12.28-7.9,16.15c-3,2-6,4.1-8.94,6.14-8.09,5.57-11.46,13.45-11.48,23.08,0,4.73.47,9.47-.63,14.18-.58,2.48-1.74,3.35-4.37,3.33-25.43-.1-50.86-.07-76.29,0a6.7,6.7,0,0,1-4.47-1.42c-3.75-2.89-7.54-5.75-11.48-8.36-2.64-1.75-2.72-2.57.3-4,12.25-5.59,24.17-11.82,36-18.25,29.46-16,57.82-33.93,86.55-51.18C292.8,133.14,293.56,132.75,295.08,131.91Z"/><path class="cls-9" d="M176.56,216.57H56.65c0-.35,0-.81.14-1,8.53-8.62,10.4-19.78,12.15-31.09,1.64-10.59,3.6-21.15,8.26-30.94,3.35-7,3.54-7,9.81-2.47q43.87,31.78,87.72,63.62C175.39,215.16,176.3,215.44,176.56,216.57Z"/><path class="cls-10" d="M90.6,329.77a16.59,16.59,0,0,1-1.55,8.69C88,340.64,86.36,342,83.82,342s-4.12-1.46-5.1-3.67c-.36-.79-.56-1.65-.88-2.45-.52-1.3-.33-3.48-2.32-3.3-1.83.16-1.56,2.3-2,3.64s-.45,2.69-.78,4c-.48,1.9-1.4,3.64-3.54,3.86s-3.79-1.1-4.78-3c-.7-1.31-1.16-2.75-1.76-4.12a1.92,1.92,0,0,0-1.63-1.37c-.81,0-1.27.72-1.58,1.43a44.1,44.1,0,0,1-1.78,4.1c-1,1.81-2.42,3.34-4.74,3s-3.48-2.31-4-4.43a8.38,8.38,0,0,1,.22-4.8c.34-1,.28-2.05-.84-2.56s-1.62.27-2.16,1a3.36,3.36,0,0,1-.24.29c-2.58,2.77-5.16,5.81-9.52,4.2-3-1.11-5.3-7.39-4.65-11.92,1.64-11.39,4.84-22.39,8.32-33.32,5.42-17,12.1-33.53,19-50,.86-2.07,1.55-4.21,2.28-6.33.48-1.4.65-3.38,2.3-3.52,1.93-.17,2.41,1.93,3,3.35a125.7,125.7,0,0,1,5.67,19c5,21.73,10.4,43.36,17.07,64.65A27.6,27.6,0,0,1,90.6,329.77Z"/><path class="cls-10" d="M296.94,273.38c1.1-8.7,3.7-17.68,6.49-26.59,4.7-15,10.56-29.59,16.66-44.07.77-1.83,1.22-3.79,1.88-5.67.29-.82.74-1.75,1.68-1.84s1.37,1,1.7,1.73c2.61,6,4.13,12.27,5.58,18.58q6.21,27,14.17,53.45a23.85,23.85,0,0,1,.52,12.19c-.61,2.7-1.79,5-4.94,5.32s-4-2-4.78-4.34c-.21-.59-.44-1.18-.6-1.78-.24-.87-.49-1.8-1.55-1.84-1.32,0-1.5,1.11-1.73,2.08-.31,1.33-.48,2.69-.86,4-.43,1.55-.78,3.4-2.75,3.61s-3.31-1.22-4.36-2.92c-.84-1.38-.38-4-2.73-3.94-1.92.08-1.81,2.43-2.54,3.79-1,1.89-2.22,3.55-4.56,3s-2.64-2.59-3-4.67c-.31-1.72,1.88-4.07-.54-5-2.1-.83-2.89,1.9-4.31,3s-3,2.55-5,1.76c-2.55-1-3.62-3.32-4.15-5.85A32.34,32.34,0,0,1,296.94,273.38Z"/><path class="cls-6" d="M243.58,271.43c-8.16,2.4-16.27,4.73-24.35,7.19-1.26.38-1.84-.24-2.58-.88-32.63-28.17-71.23-43.51-112.72-52.56-8.94-2-18-3.43-26.13-5,30-2.89,59.94,1.7,89.14,11.63A292.66,292.66,0,0,1,240.64,269c.82.57,1.64,1.13,2.44,1.73C243.25,270.81,243.34,271.06,243.58,271.43Z"/><path class="cls-11" d="M265.94,224.15c2.69,4.37,3.53,8.65,4.57,12.83,3.68,14.85,7,29.78,11.74,44.35,1,3.16.81,6.43.56,9.65-.16,2.07-1,4-3.36,4.39s-3-1.67-3.69-3.45c-.37-1-.28-2.43-1.83-2.47-1.82,0-1.6,1.63-2,2.68a8.33,8.33,0,0,0-.3,1.83c-.21,1.3-.69,2.56-2.09,2.77s-2.23-.9-2.82-2.05c-.4-.78-.65-1.63-1.1-2.37-.91-1.5-1.91-1.46-2.78.05-.25.42-.29.95-.51,1.4-.69,1.46-1.33,3.32-3.3,3-2.13-.34-2.35-2.23-2.34-4.1,0-1.17.69-2.74-.75-3.37s-2.06,1-2.9,1.78c-3.14,3.05-5.86,2.41-7.17-1.78a12.93,12.93,0,0,1,0-6.65c3.72-17.63,10.22-34.33,17.12-50.88C263.92,229.48,264.77,227.16,265.94,224.15Z"/><path class="cls-6" d="M246,269c-33.84-24-70.6-40.44-111-48.77.91-.9,2-.48,2.92-.49,6.73-.05,13.5.42,20.19-.11,15.72-1.26,30.31,2.6,44.63,8.53a385.81,385.81,0,0,1,45.89,22.48c2.42,1.4,2.85,2.67,1.82,5.22C248.8,260,247.56,264.32,246,269Z"/><path class="cls-3" d="M223.06,219.87H309.8c-1.48,4-2.9,7.65-4.25,11.37q-4.37,11.92-7.78,24.17c-1,3.79-1.55,4-4.71,1.58a75,75,0,0,0-14.68-8.83,5,5,0,0,1-3-3.89c-1.24-5.08-2.58-10.14-3.95-15.18a23,23,0,0,0-1.55-4.2c-.83-1.69-1.87-3.54-4-3.41s-3,1.94-3.73,3.75c-1.19,3.14-2.41,6.27-3.58,9.42-.51,1.37-1.14,2.11-2.74,1.24C245.13,230.09,234.18,224.88,223.06,219.87Z"/><path class="cls-6" d="M190,219.72c7.22,0,14.44,0,21.66,0a9.9,9.9,0,0,1,3.23.73A308.28,308.28,0,0,1,253.57,238c2.05,1.1,2.93,1.93,1.87,4.51-2.87,7-2.71,7.06-9.23,3.33A386.57,386.57,0,0,0,190,219.72Z"/><path class="cls-12" d="M60.73,342.34c6.41,3.41,6.93,9.51,7.57,15.56a3.26,3.26,0,0,1,.12.74c-.56,3.85-3.89,2.14-5.84,2.48-1.61.27-4.7,2.3-5.45-1.36C56.07,354.54,58,346.12,60.73,342.34Z"/><path class="cls-13" d="M321.22,287.52c5.24,2.62,5.29,7.61,6,12.36.25,1.64-.12,2.09-1.73,2.4-7.48,1.43-7.76,1.26-7-6.38C318.75,292.89,318.12,289.53,321.22,287.52Z"/><path class="cls-14" d="M277,250.86a75.43,75.43,0,0,1,14.26,8.49l-10,2.3c-1.26.3-1.8-.33-2.05-1.48C278.53,257.3,277.84,254.44,277,250.86Z"/><path class="cls-15" d="M262,305c.17-1.53.39-3,.48-4.49.08-1.29.18-2.76,1.5-3.12s2.23,1.15,2.78,2a10.52,10.52,0,0,1,1.52,7.48c-.34,1.8-3.16,1.36-4.92,1.29C261.11,308,262.46,306.05,262,305Z"/><path class="cls-16" d="M221.46,61.25c0-14.83,12.69-27.43,27.46-27.33,15.71.11,28.64,12.57,28.6,27.59,0,16-11.71,28.49-26.57,28.4C235,89.81,221.42,76.67,221.46,61.25Z"/></g></g></svg>